<svg height="512pt" viewBox="0 0 512 512" width="512pt" xmlns="http://www.w3.org/2000/svg" xmlns:xlink="http://www.w3.org/1999/xlink"><linearGradient id="a"><stop offset="0" stop-color="#5557cf"/><stop offset=".497" stop-color="#d52b8c"/><stop offset="1" stop-color="#fed56c"/></linearGradient><linearGradient id="b" gradientUnits="userSpaceOnUse" x1="45.25" x2="469.254" xlink:href="#a" y1="45.249" y2="469.254"/><linearGradient id="c" gradientUnits="userSpaceOnUse" x1="170.999" x2="595.003" xlink:href="#a" y1="-80.998" y2="343.007"/><linearGradient id="d" gradientUnits="userSpaceOnUse" x1="45" x2="469.005" xlink:href="#a" y1="45" y2="469.005"/><g fill-rule="evenodd"><path d="M130 50h252c44 0 80 36 80 80v252c0 44-36 80-80 80H130c-44 0-80-36-80-80V130c0-44 36-80 80-80zm252-40H130C64 10 10 64 10 130v252c0 66 54 120 120 120h252c66 0 120-54 120-120V130c0-66-53.996-120-120-120zm0 0" fill="url(#b)"/><path d="M382 50H130c-44 0-80 36-80 80v252c0 44 36 80 80 80h252c44 0 80-36 80-80V130c0-44-36-80-80-80zm0 50.004c16.566 0 30 13.43 30 30 0 16.566-13.434 30-30 30-16.57 0-30-13.434-30-30 0-16.57 13.43-30 30-30zM256 156c55.227 0 100 44.77 100 100 0 55.227-44.773 100-100 100s-100-44.773-100-100 44.773-100 100-100zm0 0" fill="#fff"/><path d="M412 130.004c0 16.566-13.434 30-30 30-16.57 0-30-13.434-30-30 0-16.57 13.43-30 30-30 16.566 0 30 13.43 30 30zm0 0" fill="url(#c)"/><path d="M356 256c0-55.227-44.773-100-100-100s-100 44.77-100 100c0 55.227 44.773 100 100 100 55.23 0 100-44.773 100-100zm-100-60c33.137 0 60 26.863 60 60s-26.863 60-60 60-60-26.863-60-60 26.863-60 60-60zm0 0" fill="url(#d)"/><path d="M316 256c0 33.137-26.863 60-60 60s-60-26.863-60-60 26.863-60 60-60 60 26.863 60 60zm0 0" fill="#fff"/></g><path d="M382 0H236c-5.523 0-10 4.477-10 10s4.477 10 10 10h146c60.652 0 110 49.344 110 110v252c0 60.656-49.348 110-110 110H130c-60.652 0-110-49.344-110-110V130C20 69.344 69.348 20 130 20h26c5.523 0 10-4.477 10-10s-4.477-10-10-10h-26C58.316 0 0 58.316 0 130v252c0 71.684 58.316 130 130 130h252c71.684 0 130-58.316 130-130V130C512 58.316 453.684 0 382 0zm0 0"/><path d="M356 472h26c49.625 0 90-40.375 90-90V130c0-49.625-40.375-90-90-90H130c-49.625 0-90 40.375-90 90v252c0 49.625 40.375 90 90 90h146c5.523 0 10-4.477 10-10s-4.477-10-10-10H130c-38.598 0-70-31.402-70-70V130c0-38.598 31.402-70 70-70h252c38.598 0 70 31.402 70 70v252c0 38.598-31.402 70-70 70h-26c-5.523 0-10 4.477-10 10s4.477 10 10 10zm0 0"/><path d="M366 256c0-60.652-49.348-110-110-110s-110 49.348-110 110 49.348 110 110 110 110-49.348 110-110zm-110 90c-49.625 0-90-40.375-90-90s40.375-90 90-90 90 40.375 90 90-40.375 90-90 90zm0 0"/><path d="M256 186c-38.598 0-70 31.402-70 70s31.402 70 70 70 70-31.402 70-70-31.402-70-70-70zm0 120c-27.57 0-50-22.43-50-50s22.43-50 50-50 50 22.43 50 50-22.43 50-50 50zm166-175.996c0-22.059-17.945-40-40-40-22.059 0-40 17.941-40 40 0 22.055 17.941 40 40 40 22.055 0 40-17.945 40-40zm-60 0c0-11.031 8.973-20 20-20s20 8.969 20 20c0 11.027-8.973 20-20 20s-20-8.973-20-20zM196.004 20c5.523 0 10-4.477 10-10s-4.477-10-10-10h-.008C190.476 0 186 4.477 186 10s4.48 10 10.004 10zm119.992 432c-5.523 0-9.996 4.477-9.996 10s4.48 10 10.004 10c5.523 0 10-4.477 10-10s-4.477-10-10-10zm0 0"/></svg>