<svg height="512" width="512" xmlns="http://www.w3.org/2000/svg"><path d="M405.466 416.705H27.521c-11.046 0-20-8.954-20-20V132.916c0-11.046 8.954-20 20-20h377.945c11.046 0 20 8.954 20 20v263.789c0 11.046-8.955 20-20 20z" fill="#ffd064"/><path d="M405.423 112.916h-12.775v250.929c0 11.069-8.973 20.042-20.042 20.042H7.521v12.775c0 11.069 8.973 20.042 20.042 20.042h377.86c11.069 0 20.042-8.973 20.042-20.042V132.958c.001-11.069-8.973-20.042-20.042-20.042z" fill="#ffc250"/><path d="M216.493 181.629L8.828 403.797c2.873 7.551 10.176 12.908 18.735 12.908h227.412a5.01 5.01 0 014.339 2.505l35.326 61.187c3.857 6.681 13.5 6.681 17.357 0l35.326-61.187a5.01 5.01 0 014.339-2.505h53.76c8.559 0 15.862-5.357 18.735-12.908z" fill="#ffe07d"/><path d="M231.135 329.621L423.333 124c-3.291-6.566-10.065-11.084-17.91-11.084H27.563c-7.845 0-14.619 4.518-17.91 11.084l192.198 205.621c7.922 8.475 21.362 8.475 29.284 0z" fill="#ffc250"/><path d="M405.423 112.916h-15.412L194.243 321.482l7.608 8.139c7.922 8.475 21.362 8.475 29.284 0L423.333 124c-3.291-6.566-10.065-11.084-17.91-11.084z" fill="#ebb044"/><circle cx="427.47" cy="103.606" fill="#ecf4ff" r="77.014"/><path d="M466.854 37.425c6.874 11.525 10.833 24.99 10.833 39.384 0 42.534-34.48 77.014-77.014 77.014-14.394 0-27.859-3.96-39.384-10.833 13.437 22.531 38.042 37.63 66.181 37.63 42.534 0 77.014-34.48 77.014-77.014 0-28.139-15.099-52.743-37.63-66.181z" fill="#ddeafb"/><path d="M391.885 369.27c-2.368 8.43-10.093 14.618-19.279 14.618h-38.563a5.01 5.01 0 00-4.339 2.505l-17.706 30.667c-3.857 6.681-13.5 6.681-17.357 0l-17.706-30.667a5.01 5.01 0 00-4.339-2.505H27.438l-18.61 19.91c2.873 7.551 10.176 12.908 18.735 12.908h227.412a5.01 5.01 0 014.339 2.505l35.326 61.187c3.857 6.681 13.5 6.681 17.357 0l35.326-61.187a5.01 5.01 0 014.339-2.505h53.76c8.559 0 15.862-5.357 18.735-12.908z" fill="#ffd064"/><path d="M512 103.606a7.516 7.516 0 10-15.032 0c0 38.321-31.177 69.498-69.498 69.498-38.322 0-69.499-31.177-69.499-69.498s31.177-69.498 69.499-69.498c26.533 0 50.378 14.76 62.232 38.52a7.515 7.515 0 0010.08 3.37 7.514 7.514 0 003.37-10.08c-14.414-28.893-43.414-46.842-75.682-46.842-46.61 0-84.531 37.92-84.531 84.53 0 .602.033 1.195.046 1.794H140.05a7.516 7.516 0 100 15.032h204.576c3.789 18.682 13.77 35.132 27.685 47.147l-146.667 156.91c-2.394 2.561-5.645 3.972-9.151 3.972s-6.756-1.411-9.151-3.972L19.429 123.451a12.466 12.466 0 018.135-3.02h75.345a7.516 7.516 0 100-15.032H27.563c-15.195 0-27.558 12.363-27.558 27.558v263.705c-.306 14.766 12.785 27.859 27.558 27.558h225.966l34.603 59.934c3.169 5.49 8.847 8.768 15.186 8.768h.001c6.34 0 12.017-3.277 15.187-8.768l34.602-59.934h52.314c14.763.306 27.861-12.79 27.558-27.558V187.937c44.05-2.852 79.02-39.574 79.02-84.331zM129.719 263.457L15.037 386.148V140.766zm275.705 145.732h-53.761c-4.46 0-8.616 2.4-10.848 6.263l-35.325 61.187c-.629 1.09-1.63 1.253-2.171 1.253-.539 0-1.539-.162-2.169-1.253l-35.327-61.189a12.563 12.563 0 00-10.847-6.261H27.563c-3.655.074-7.077-1.67-9.421-4.35l121.865-130.376 56.354 60.29c5.192 5.555 12.529 8.74 20.132 8.74s14.941-3.185 20.133-8.74l56.353-60.289 62.818 67.205a7.516 7.516 0 0010.982-10.264l-63.512-67.948 81.35-87.031a83.916 83.916 0 0033.333 11.16v198.563l-26.961-28.844a7.516 7.516 0 10-10.982 10.264l34.803 37.234c-2.166 2.614-5.348 4.116-9.386 4.386z"/><path d="M428.882 149.24a7.516 7.516 0 007.516-7.516V73.506a7.516 7.516 0 00-7.516-7.516H414.3a7.516 7.516 0 100 15.032h7.066v60.702a7.516 7.516 0 007.516 7.516z"/></svg>