<svg xmlns="http://www.w3.org/2000/svg" viewBox="0 0 512 512"><path d="M161.987 180.767l7.432-1.507c9.807-1.988 9.807-16.005 0-17.993l-7.432-1.507a47.542 47.542 0 01-37.147-37.147l-1.507-7.432c-1.988-9.807-16.005-9.807-17.993 0l-1.507 7.432a47.542 47.542 0 01-37.147 37.147l-7.432 1.507c-9.807 1.988-9.807 16.005 0 17.993l7.432 1.507a47.542 47.542 0 0137.147 37.147l1.507 7.432c1.988 9.807 16.005 9.807 17.993 0l1.507-7.432a47.542 47.542 0 0137.147-37.147z" fill="#f9d366"/><path d="M504.396 374.622c0 54.313-111.21 98.345-248.396 98.345-29.159 0-57.141-1.987-83.137-5.647C76.567 453.784 7.604 417.387 7.604 374.622c0-38.557 56.036-71.923 137.622-88.054l79.73-.588 133.404-.994c86.117 15.443 146.036 49.771 146.036 89.636z" fill="#96c"/><path d="M172.863 467.319C76.567 453.784 7.604 417.387 7.604 374.622c0-38.557 56.036-71.923 137.622-88.054l79.73-.588-64.157 87.922c-.001 0-52.275 29.068 12.064 93.417z" fill="#8959c1"/><path d="M386.322 374.622c0 28.5-58.348 51.595-130.322 51.595-33.498 0-64.035-4.998-87.121-13.221-26.523-9.449-43.201-23.136-43.201-38.375l26.908-59.818-12.166-46.638 66.915-66.915v-62.859l129.774-99.358-34.471 103.414 20.277 44.61-12.166 56.776 59.818 51.707 15.755 79.082z" fill="#cfb1fc"/><path d="M337.109 39.034l-85.073 111.322v41.051l-57.79 89.727 16.729 41.061-42.096 90.801c-26.523-9.449-43.201-23.136-43.201-38.375l26.908-59.818-12.166-46.638 66.915-66.915v-62.859l129.774-99.357z" fill="#cf8bfc"/><path d="M446.506 254.647l6.205-1.258c8.189-1.661 8.189-13.364 0-15.023l-6.205-1.258a39.695 39.695 0 01-31.017-31.017l-1.258-6.205c-1.661-8.189-13.364-8.189-15.023 0l-1.258 6.205a39.695 39.695 0 01-31.017 31.017l-6.205 1.258c-8.189 1.661-8.189 13.364 0 15.023l6.205 1.258a39.695 39.695 0 0131.017 31.017l1.258 6.205c1.661 8.189 13.364 8.189 15.023 0l1.258-6.205a39.692 39.692 0 0131.017-31.017z" fill="#f9d366"/><path d="M57.743 186.713l7.432 1.507a39.865 39.865 0 0131.206 31.206l1.507 7.432c1.606 7.919 8.369 13.449 16.45 13.449 8.079 0 14.843-5.531 16.449-13.449l1.507-7.432A39.864 39.864 0 01163.5 188.22l7.432-1.507c7.918-1.605 13.449-8.368 13.449-16.449 0-8.079-5.53-14.844-13.449-16.45l-7.432-1.507a39.867 39.867 0 01-31.206-31.206l-1.507-7.432c-1.605-7.918-8.368-13.449-16.449-13.449-8.078 0-14.844 5.531-16.449 13.448l-1.507 7.432a39.864 39.864 0 01-31.206 31.206l-7.432 1.507c-7.919 1.606-13.449 8.369-13.449 16.45.001 8.081 5.53 14.844 13.448 16.45zm3.023-17.994l7.432-1.507a55.043 55.043 0 0043.089-43.089l1.507-7.432c.083-.41.255-1.263 1.544-1.262 1.288 0 1.46.853 1.543 1.262l1.507 7.432a55.043 55.043 0 0043.089 43.089l7.432 1.507c.41.083 1.262.255 1.262 1.544 0 1.288-.853 1.46-1.262 1.543l-7.432 1.507a55.045 55.045 0 00-43.089 43.089l-1.507 7.432c-.083.41-.255 1.262-1.543 1.262-1.289 0-1.461-.853-1.544-1.262l-1.507-7.432a55.045 55.045 0 00-43.088-43.089l-7.433-1.507c-.41-.083-1.262-.255-1.262-1.543-.001-1.288.851-1.46 1.262-1.544zm355.27 273.092C371.724 456.998 314.889 465.363 256 465.363c-65.413 0-126.797-10.04-172.843-28.271-43.182-17.097-67.949-39.866-67.949-62.47 0-28.363 39.245-56.645 102.418-73.813a7.605 7.605 0 00-3.988-14.676c-33.514 9.108-61.52 21.487-80.988 35.799C11.29 337.636 0 355.856 0 374.622c0 29.601 27.544 56.808 77.558 76.609C125.344 470.152 188.716 480.57 256 480.57c60.523 0 119.109-8.656 164.966-24.374a7.604 7.604 0 00-4.93-14.385zm22.919-141.966a7.605 7.605 0 00-5.846 14.04c40.471 16.851 63.683 38.989 63.683 60.737 0 19.761-18.704 39.586-52.665 55.823a7.605 7.605 0 006.56 13.721C490.798 424.989 512 400.941 512 374.622c0-28.607-25.941-55.164-73.045-74.777z"/><path d="M133.062 270.086l11.49 44.043-8.73 19.409a7.604 7.604 0 0013.869 6.239l9.83-21.854a7.602 7.602 0 00.423-5.039l-11.067-42.422 43.198-43.198.005-.005 41.82-41.82a7.602 7.602 0 000-10.753 7.602 7.602 0 00-10.753 0l-8.208 8.207v-40.747l107.124-82.015-26.637 79.912a7.604 7.604 0 00.291 5.551l19.239 42.325-4.899 22.861-.004.015-11.327 52.862a7.605 7.605 0 0014.872 3.186l1.898-8.857 48.126 41.602 15.077 75.699c-1.056 20.634-51.148 43.327-122.7 43.327-70.641 0-120.367-22.121-122.635-42.541l5.375-11.949a7.604 7.604 0 10-13.869-6.239l-6.126 13.618a7.608 7.608 0 00-.669 3.12c0 17.114 15.262 32.581 42.975 43.553 25.483 10.09 59.204 15.646 94.949 15.646s69.466-5.556 94.949-15.646c27.713-10.972 42.976-26.439 42.976-43.553 0-.499-.05-.996-.147-1.485l-15.75-79.08a7.597 7.597 0 00-2.485-4.267l-56.411-48.764 2.473-11.541 8.751-40.834a7.614 7.614 0 00-.513-4.74l-19.041-41.892 33.526-100.581a7.606 7.606 0 00-2.798-8.596 7.602 7.602 0 00-9.039.153l-129.774 99.358a7.603 7.603 0 00-2.982 6.038v59.71l-64.687 64.687a7.597 7.597 0 00-1.985 7.297z"/><path d="M359.215 260.84l6.206 1.258a32.031 32.031 0 0125.074 25.076l1.258 6.205c1.46 7.204 7.614 12.235 14.965 12.235s13.504-5.031 14.965-12.234l1.258-6.206a32.031 32.031 0 0125.075-25.075l6.205-1.258c7.203-1.461 12.234-7.614 12.234-14.965s-5.031-13.504-12.234-14.965l-6.205-1.258a32.032 32.032 0 01-25.075-25.075l-1.258-6.205c-1.46-7.203-7.614-12.235-14.965-12.235s-13.504 5.031-14.965 12.234l-1.258 6.207a32.029 32.029 0 01-25.074 25.074l-6.206 1.258c-7.203 1.461-12.234 7.614-12.234 14.965s5.031 13.503 12.234 14.964zm2.976-15.013l.047-.01 6.206-1.258a47.21 47.21 0 0036.957-36.957l1.258-6.206.01-.047a.546.546 0 01.099 0l.01.047 1.258 6.205a47.213 47.213 0 0036.957 36.958l6.206 1.258.047.01a.546.546 0 010 .099l-.047.01-6.205 1.258a47.212 47.212 0 00-36.958 36.958l-1.258 6.206-.01.047a.546.546 0 01-.099 0l-.01-.047-1.258-6.205a47.21 47.21 0 00-36.957-36.959l-6.206-1.258-.047-.01a.546.546 0 010-.099z"/></svg>