<svg width="1699" height="766" xmlns="http://www.w3.org/2000/svg" xmlns:xlink="http://www.w3.org/1999/xlink"><defs><path d="M285.813 453.559c6.236 0 10.26-2.012 12.07-6.036l-1.207-4.828v-1.207l1.207-1.207c0-3.219-4.023-5.23-12.07-6.035-15.289-11.266-22.933-25.75-22.933-43.453v-32.59l2.414-16.898c20.117-68.7 30.175-117.384 30.175-146.051 0-11.567-1.207-21.626-3.62-30.176-11.367-29.773-26.656-44.66-45.868-44.66h-1.207c-12.07 0-30.578 13.277-55.523 39.832-1.006-10.46-2.213-15.691-3.621-15.691 0-11.065-14.485-18.307-43.454-21.727h-3.62c-15.793 0-30.68 11.668-44.66 35.004h-1.208c-4.526-12.07-9.757-18.106-15.691-18.106h-3.621l-2.414 2.415v3.62c4.325 5.533 9.153 15.591 14.484 30.176-.1 4.93-2.917 12.171-8.45 21.727-8.85 19.413-17.702 71.718-26.554 156.914 0 25.549 7.645 40.436 22.934 44.66h4.828c6.337 0 12.372-5.23 18.105-15.691 12.875-47.074 19.313-79.664 19.313-97.77v-4.828c0-34.601-5.23-69.203-15.692-103.805v-1.207c12.272-24.945 28.366-37.418 48.282-37.418h4.828c18.507 0 27.761 12.875 27.761 38.625v8.45c-13.68 40.435-20.52 64.978-20.52 73.629v7.242c2.113 9.656 4.125 14.484 6.036 14.484 7.343 0 15.39-20.117 24.14-60.351 2.214-30.579 4.225-45.868 6.036-45.868 14.182-24.945 29.07-37.418 44.66-37.418 5.733 0 10.16.805 13.277 2.414 16.899 11.166 25.348 28.869 25.348 53.11 0 14.484-2.816 31.785-8.45 51.902-19.312 60.754-28.968 102.196-28.968 124.324v10.864l1.207 14.484c4.627 39.43 18.709 59.145 42.246 59.145zm-36.21-325.899h-8.45v-1.207h8.45v1.207zm27.76 24.14h-1.206c-3.219-7.241-5.633-10.863-7.242-10.863v-1.207l8.449 9.657v2.414zM75.79 383.55c-4.627 0-8.248-5.23-10.864-15.69v-1.208c6.438-53.612 14.887-110.342 25.348-170.191h1.207c4.023 21.827 6.035 42.749 6.035 62.766l-2.414 90.527c-4.526 17.401-10.964 28.667-19.312 33.797zm28.968-147.257h-1.207v-3.621h1.207v3.621zm0 78.457h-1.207v-1.207l1.207-25.348V237.5h1.207l2.414 22.934-3.62 54.316zm182.262-72.422h-1.207v-2.414h1.207v2.414zm-1.207 6.035h-1.207v-3.62h1.207v3.62zm-1.207 4.828H283.4v-3.62h1.207v3.62zm-1.207 6.036h-1.207v-3.622h1.207v3.622zm-1.207 4.828h-1.207v-3.621h1.207v3.62zm-1.207 4.828h-1.207v-3.621h1.207v3.62zm-1.207 4.828h-1.207v-3.621h1.207v3.62zm-3.621 13.277h-1.207v-1.207l2.414-10.863h1.207v1.207l-2.414 10.863zm-1.207 4.828h-1.207v-3.62h1.207v3.62zm-1.207 4.829h-1.207v-3.622h1.207v3.622zm-1.207 3.62h-1.207v-2.413h1.207v2.414zm-1.207 4.829h-1.207v-3.621h1.207v3.62zm-1.207 3.62h-1.207v-2.413h1.207v2.414zm-1.207 4.829h-1.207v-2.414h1.207v2.414zm-207.61 4.828h-1.207v-2.414h1.207v2.414zm-1.207 7.242h-1.207v-3.62h1.207v3.62zm-1.207 9.657h-1.207v-6.036h1.207v6.036zm-1.207 28.968h-1.207v-25.347h1.207v25.347zm199.16 0h-1.207v-6.035h1.207v6.035zm12.07 59.145c-8.046-7.242-12.07-13.278-12.07-18.106l1.207-14.484h1.207c0 15.49 3.22 25.951 9.657 31.383v1.207zm14.485 24.14c-3.621 0-8.852-2.011-15.691-6.035v-1.207c6.135 3.219 12.975 4.828 20.52 4.828v1.207l-4.829 1.207zm58.994-198.104c2.414.202 3.822-1.71 4.224-5.733 20.017-21.928 30.377-36.21 31.081-42.85-1.508-12.372-6.538-18.96-15.088-19.765-10.762-1.106-19.463 4.879-26.102 17.955l-3.319-2.716-8.45-.905-1.206 1.056v-1.207c-6.74-.604-11.97 3.32-15.692 11.768-.301 3.018 1.861 9.707 6.488 20.067 10.662 14.082 20.017 21.526 28.064 22.33zm30.025-45.565l-1.207-.15c-2.012-10.663-6.69-16.396-14.032-17.201l.15-1.056 3.622.302c6.94.704 10.813 6.336 11.617 16.898l-.15 1.207zm-27.159-7.544l-1.207-.15c.202-1.912 3.772-5.181 10.713-9.808l1.207.15-10.713 9.808zm9.506 3.32l-1.207-.151 5.28-4.225 2.113 2.565-.151 1.207-6.035.603zm-38.173 4.677l-1.207-.151.302-2.414 1.207.15-.302 2.415zm22.029 33.797c-11.165-9.657-16.396-17.854-15.692-24.594l.453-4.828 2.716-2.263 2.414.302c4.426 10.561 7.493 16.144 9.203 16.747l1.207.151 1.358-1.207c3.22-13.378 8.701-19.664 16.446-18.86-.402 3.621-6.437 15.138-18.105 34.552zm19.161-21.124l-1.207-.15.151-1.207 3.47-10.562 1.207.15-.301 3.622-3.32 8.147zm-43.151-4.375l-1.207-.15.603-7.243 1.207.15-.603 7.243zm44.962 179.244c19.111 1.911 33.193-9.606 42.246-34.551l.453-4.828c1.106-10.36-5.985-16.345-21.274-17.955l-5.281 4.376-.302 3.62 3.169 5.13 3.62-.754c6.136 3.42 9.053 6.94 8.752 10.562-1.207 11.97-10.461 19.111-27.762 21.425l-5.884-.604-7.092-1.961c-14.585-8.55-20.921-22.13-19.01-40.738l8.147-44.056c1.207-12.07-1.86-21.677-9.204-28.818l-1.207-.151c-4.224-.402-10.159 18.005-17.803 55.222l.302 21.877c6.84 32.288 21.676 49.589 44.509 51.902l3.62.302zm-25.348-109.387h-1.207l-1.66-7.544.151-2.414 1.207.15 1.66 7.394-.15 2.414zm-7.242 23.537h-1.207l1.056-10.863 1.207.15L327.003 306zm3.923 8.902l-1.207-.151 1.056-10.712 1.207.15-1.056 10.713zm-14.635 11.92l-1.057-.152.604-7.242 1.207.151-.754 7.242zm1.81 18.407l-1.207-.151.453-3.621 1.207.15-.453 3.622zm.905 3.62H317.8l.151-2.413 1.207.15-.15 2.264zm.755 3.773l-1.207-.151.302-2.414 1.207.15-.302 2.415zm175.02 24.291c13.68-1.61 20.519-8.047 20.519-19.312v-16.9c0-12.271-8.45-23.94-25.348-35.004-27.36-10.863-41.039-21.726-41.039-32.59 4.024-13.68 9.656-20.52 16.899-20.52h3.62c3.924 0 8.752 2.817 14.485 8.45-4.828 8.047-7.242 14.082-7.242 18.106v1.207c2.816 4.224 6.035 7.04 9.656 8.449 7.242-12.171 10.863-20.62 10.863-25.348 0-12.07-8.449-19.312-25.347-21.726h-1.207c-20.117 2.715-30.176 11.567-30.176 26.554v4.828c0 6.84 4.426 14.485 13.277 22.934 30.578 13.479 45.868 29.17 45.868 47.074v6.035c0 9.657-6.036 14.485-18.106 14.485l-10.863-1.207c-30.578-11.668-45.867-24.14-45.867-37.418.1-3.219 3.319-6.438 9.656-9.656 4.023 0 6.035-.805 6.035-2.415v-4.828l-1.207-1.207h-4.828c-14.485 0-21.727 8.45-21.727 25.348l1.207 4.828c17.905 26.555 39.631 39.832 65.18 39.832h15.691zm10.863-27.762h-1.207c0-8.248-1.207-14.685-3.621-19.312v-1.207h1.207l4.828 12.07-1.207 8.45zm-45.868 14.485h-2.414v-1.207h2.414v1.207zm38.625 8.449h-1.207v-1.207c2.314 0 6.337-2.816 12.07-8.45 0 4.024-3.62 7.243-10.863 9.657zm111.35 4.828c13.679-1.61 20.519-8.047 20.519-19.312v-16.9c0-12.271-8.45-23.94-25.348-35.004-27.36-10.863-41.04-21.726-41.04-32.59 4.024-13.68 9.657-20.52 16.9-20.52h3.62c3.923 0 8.751 2.817 14.485 8.45-4.828 8.047-7.242 14.082-7.242 18.106v1.207c2.816 4.224 6.035 7.04 9.656 8.449 7.242-12.171 10.863-20.62 10.863-25.348 0-12.07-8.45-19.312-25.347-21.726h-1.208c-20.117 2.715-30.175 11.567-30.175 26.554v4.828c0 6.84 4.425 14.485 13.277 22.934 30.578 13.479 45.867 29.17 45.867 47.074v6.035c0 9.657-6.035 14.485-18.105 14.485l-10.864-1.207c-30.578-11.668-45.867-24.14-45.867-37.418.1-3.219 3.32-6.438 9.657-9.656 4.023 0 6.035-.805 6.035-2.415v-4.828l-1.207-1.207h-4.828c-14.485 0-21.727 8.45-21.727 25.348l1.207 4.828c17.904 26.555 39.63 39.832 65.18 39.832h15.691zm10.862-27.762h-1.207c0-8.248-1.207-14.685-3.62-19.312v-1.207h1.206l4.828 12.07-1.207 8.45zm-45.867 14.485h-2.414v-1.207h2.414v1.207zm38.625 8.449h-1.207v-1.207c2.314 0 6.337-2.816 12.07-8.45 0 4.024-3.62 7.243-10.863 9.657zm175.321 51.751l8.148-3.62c17.602-24.242 22.28-72.523 14.032-144.844l-2.565-17.955 1.358 1.056c52.103-9.555 79.11-16.647 81.022-21.274-12.171-5.633-33.797-6.236-64.878-1.81l-13.127 1.961-8.147 2.263-1.66-3.319-1.509-19.313-1.961-13.126c-3.52-24.744-9.304-45.465-17.351-62.162l-.151-1.207c17.904-2.515 53.612-5.583 107.124-9.204l1.207-.15c25.85-6.941 38.474-12.373 37.87-16.296l-.15-1.207-2.867-3.319-8.147 2.414-3.622.453c-58.239 4.124-98.171 6.186-119.797 6.186-11.87 2.716-17.553 5.532-17.05 8.449l-1.207.15-1.358-.904-2.414.301-3.319 2.867-6.035-.302-2.113 2.716c19.514 51.098 30.076 82.53 31.685 94.3l2.263 15.39c-13.378 3.52-19.916 6.085-19.614 7.694l.302 2.414c.402 3.018 7.644 5.23 21.726 6.639 2.716 35.406 3.22 53.21 1.51 53.41-12.272 53.814-17.704 85.6-16.296 95.356l.905 5.885c.805 6.135 2.867 9.505 6.186 10.108zm82.833-296.175l-.15-1.207 2.413-.302.151 1.207-2.414.302zm-39.983 2.112l-.15-1.207 8.298-1.207.15 1.207-8.298 1.207zm14.484-.905l-.15-1.207 2.414-.302.15 1.207-2.414.302zm-57.786 4.677l-.151-1.207 16.597-2.414 24.14-2.263.151 1.207-6.035.905-34.702 3.772zm-12.825 21.274l-.302-2.414 1.057-.15.452 2.413-1.207.151zm30.78 96.865l-.151-1.207 33.495-4.829.15 1.207-33.495 4.829zm.452 118.44l-.302-2.415.604-51.6 1.207-.151.302 2.414-.604 51.45-1.207.302zm-.453 4.828l-.452-3.47 1.207-.151.452 3.47-1.207.15zm-.452 4.979l-.604-3.621 1.207-.151.604 3.62-1.207.152zm-.755 3.772l-.301-2.414 1.207-.151.301 2.414-1.207.15zm93.545-14.937c4.627 18.81 12.372 27.46 23.236 25.95l1.207-.15 1.056-1.358c18.508-2.716 33.244-15.842 44.207-39.38 1.61-.2 3.22 2.415 4.829 7.846 6.84 12.875 16.194 18.458 28.063 16.748l4.828-.754c11.266-1.61 17.05-9.355 17.351-23.236l-.302-2.414-1.508-.905c-12.976 6.74-21.777 10.41-26.404 11.014l-1.207.15c-8.751 1.308-14.133-5.23-16.144-19.613l-.906-5.885 12.674-79.211-.301-2.414c-1.409-9.556-8.6-14.233-21.576-14.032l-1.207.151c-7.242 1.106-14.434 4.627-21.576 10.561-37.82 29.875-53.461 67.645-46.923 113.31l.603 3.622zm28.215 9.354c-6.136-2.917-10.11-10.46-11.92-22.632-2.112-14.685-1.156-27.862 2.867-39.53 9.153-38.223 24.794-58.943 46.923-62.162 6.035-.905 10.21 2.565 12.523 10.41l.453 3.622-8.45 32.288c-14.785 50.092-28.918 76.093-42.396 78.004zm-22.029-41.944l-.15-1.207c-1.107-12.171 2.363-27.712 10.41-46.622l1.207-.15c-4.124 10.762-7.544 26.705-10.26 47.828l-1.207.15zm-.452 4.979l-.453-3.621 1.207-.151.453 3.62-1.207.152zm96.11 32.439l-11.015-.906-.15-1.056 1.207-.301 7.393 1.358c11.668-2.415 17.753-5.281 18.256-8.6l1.207-.302c-2.515 5.33-6.136 8.298-10.863 8.901l-6.035.906zm-96.412-.755l-1.056-7.09 1.207-.303 1.056 7.243-1.207.15zm80.117-3.017l-1.358-1.056-.302-1.057 1.207-.301 1.358 1.056.302 1.207-1.207.15zm-50.847 11.014l-.301-1.207 8.902-6.186.15 1.207c.302 2.112-2.212 4.124-7.543 6.035l-1.208.151zm-12.22 9.053c-6.036.905-11.065-3.22-15.089-12.372l-.603-3.621 1.207-.151c1.106 7.644 7.896 12.321 20.369 14.031l.15 1.207-6.035.906zm209.268 7.545c-3.52-22.331-4.325-36.967-2.414-43.907 6.136-42.75 8.198-69.002 6.186-78.759l-1.81-9.505c-5.834-28.768-20.218-43.101-43.152-43.001-15.892 3.219-26.051 15.943-30.477 38.173l-1.207.15c-2.817-14.182-9.003-20.318-18.558-18.407l-8.148 1.66-1.961 2.867.754 3.47c6.237-1.207 11.115 6.84 14.635 24.14l.453 2.415 1.81 20.519c-5.13 39.832-6.487 65.984-4.073 78.457l2.716 12.976 2.866 1.961c1.71-2.816 4.527-5.03 8.45-6.639 4.727-21.726 7.292-49.74 7.694-84.04-5.13-25.649 2.616-44.458 23.236-56.428l2.263-.452c9.355-1.912 16.697 6.035 22.028 23.838 2.213 10.864 2.867 20.168 1.962 27.913-3.32 36.613-3.52 62.112-.604 76.496 2.515 17.502 8.299 26.202 17.351 26.103zM1081.7 234.784l-.15-1.207 8.901-4.224 9.958.452.302 1.207-1.207.151-3.772-.453-10.41 3.32-3.622.754zm37.267 38.022l-.754-3.47c-3.32-16.497-11.618-27.159-24.895-31.987l-.15-1.207 1.206-.15 7.242-.303c7.142-1.408 13.077 9.707 17.804 33.345l.754 3.62-1.207.152zm-68.348 8.902l-.301-1.208.301-4.979c-2.917-10.46-6.286-18.81-10.109-25.045l1.207-.302c5.331 1.81 9.003 7.644 11.015 17.502l.452 2.414-1.509 11.316-1.056.302zm67.745 61.407l-.302-1.207-.15-7.242.15-60.352 1.207-.301 1.358 7.091c1.408 6.84 1.056 27.46-1.056 61.86l-1.207.151zm8.45-62.011l-1.208-5.884 1.207-.302 1.207 6.035-1.207.151zm0 12.372l-.755-3.621-.151-7.242 1.056-.302.604 2.414.452 8.45-1.207.301zm-.303 4.98l-.603-3.622 1.056-.15.754 3.47-1.207.301zm-80.116 41.943l-.453-2.414 1.207-.15.453 2.263-1.207.301zm-.302 4.98l-.604-3.622 1.057-.15.754 3.47-1.207.301zm-.151 4.978l-.754-3.62 1.207-.152.754 3.47-1.207.302zm-.302 11.165l-.452-2.414-.151-7.393 1.056-.15.603 2.263.151 7.393-1.207.301zm0 6.036l-.905-4.678 1.207-.301.905 4.828-1.207.15zm171.248 56.277c25.549-4.627 38.927-12.975 40.134-25.045l.15-1.207-3.168-3.923c-24.543 10.46-39.63 15.39-45.264 14.786l-12.824-4.828c-19.212-33.294-26.153-66.186-20.822-98.675 5.331-32.49 9.455-55.322 12.372-68.5l34.25-6.336 4.828.603 3.923-3.319.302-2.414c-.1-3.822-13.63-5.18-40.587-4.074h-1.207l1.66-15.691c3.32-32.791 1.408-49.539-5.734-50.243l-1.207-.15c-1.71 5.431-3.218 8.097-4.526 7.996l-.15 37.569-3.17 19.161-2.413-.301c-10.662-1.107-17.754 1.006-21.274 6.337l-.302 2.414c-.201 2.414 6.085 4.275 18.86 5.582l-5.884 34.551-.302 3.622c-5.03 97.367 10.813 147.911 47.527 151.633l4.828.452zm-40.737-183.62l-1.208-.15.302-2.414 1.207.15-.301 2.415zm-6.79 79.967l-1.509-9.657 2.414-35.758.604-6.035 2.414-11.92 1.207.151-5.13 63.219zm73.93 83.285c-8.147 6.437-15.741 9.304-22.782 8.6h-1.207l.15-1.207 22.633-7.544 1.207.15zm-10.712-34.702c4.627 18.81 12.372 27.46 23.236 25.95l1.207-.15 1.056-1.358c18.508-2.716 33.243-15.842 44.207-39.38 1.61-.2 3.219 2.415 4.828 7.846 6.84 12.875 16.195 18.458 28.064 16.748l4.828-.754c11.266-1.61 17.05-9.355 17.351-23.236l-.302-2.414-1.508-.905c-12.976 6.74-21.777 10.41-26.404 11.014l-1.207.15c-8.751 1.308-14.133-5.23-16.144-19.613l-.906-5.885 12.674-79.211-.302-2.414c-1.408-9.556-8.6-14.233-21.575-14.032l-1.207.151c-7.242 1.106-14.434 4.627-21.576 10.561-37.82 29.875-53.461 67.645-46.923 113.31l.603 3.622zm28.215 9.354c-6.136-2.917-10.11-10.46-11.92-22.632-2.112-14.685-1.157-27.862 2.867-39.53 9.153-38.223 24.794-58.943 46.923-62.162 6.035-.905 10.21 2.565 12.523 10.41l.453 3.622-8.45 32.288c-14.786 50.092-28.918 76.093-42.396 78.004zm-22.029-41.944l-.15-1.207c-1.107-12.171 2.363-27.712 10.41-46.622l1.207-.15c-4.124 10.762-7.544 26.705-10.26 47.828l-1.207.15zm-.452 4.979l-.453-3.621 1.207-.151.453 3.62-1.207.152zm96.11 32.439l-11.015-.906-.15-1.056 1.206-.301 7.394 1.358c11.668-2.415 17.753-5.281 18.256-8.6l1.207-.302c-2.515 5.33-6.136 8.298-10.863 8.901l-6.036.906zm-96.412-.755l-1.056-7.09 1.207-.303 1.056 7.243-1.207.15zm80.117-3.017l-1.358-1.056-.302-1.057 1.207-.301 1.358 1.056.302 1.207-1.207.15zm-50.847 11.014l-.301-1.207 8.901-6.186.151 1.207c.302 2.112-2.213 4.124-7.544 6.035l-1.207.151zm-12.22 9.053c-6.036.905-11.065-3.22-15.089-12.372l-.603-3.621 1.207-.151c1.106 7.644 7.896 12.321 20.368 14.031l.151 1.207-6.035.906zm189.805-12.976c13.68-1.61 20.52-8.047 20.52-19.312v-16.9c0-12.271-8.45-23.94-25.348-35.004-27.36-10.863-41.04-21.726-41.04-32.59 4.024-13.68 9.657-20.52 16.9-20.52h3.62c3.923 0 8.751 2.817 14.485 8.45-4.829 8.047-7.243 14.082-7.243 18.106v1.207c2.817 4.224 6.036 7.04 9.657 8.449 7.242-12.171 10.863-20.62 10.863-25.348 0-12.07-8.45-19.312-25.348-21.726h-1.207c-20.117 2.715-30.176 11.567-30.176 26.554v4.828c0 6.84 4.426 14.485 13.278 22.934 30.578 13.479 45.867 29.17 45.867 47.074v6.035c0 9.657-6.035 14.485-18.105 14.485l-10.864-1.207c-30.578-11.668-45.867-24.14-45.867-37.418.1-3.219 3.32-6.438 9.656-9.656 4.024 0 6.035-.805 6.035-2.415v-4.828l-1.207-1.207h-4.828c-14.484 0-21.726 8.45-21.726 25.348l1.207 4.828c17.904 26.555 39.63 39.832 65.18 39.832h15.69zm10.863-27.762h-1.207c0-8.248-1.207-14.685-3.621-19.312v-1.207h1.207l4.828 12.07-1.207 8.45zm-45.867 14.485h-2.414v-1.207h2.414v1.207zm38.625 8.449h-1.207v-1.207c2.313 0 6.337-2.816 12.07-8.45 0 4.024-3.62 7.243-10.863 9.657zm86.755 138.658l13.278-2.414c31.08-14.686 46.621-41.945 46.621-81.777v-10.863c-2.917-12.271-5.582-27.31-7.996-45.113l2.715-3.923c15.29-25.448 22.934-52.807 22.934-82.078v-13.277c-4.526-20.117-11.768-30.176-21.726-30.176h-3.622c-11.668 0-18.507 14.484-20.52 43.453v25.348c0 14.182 1.61 31.886 4.829 53.11-7.142 7.241-13.981 11.265-20.52 12.07h-3.62l-7.243-1.207c-13.68-7.544-20.52-24.443-20.52-50.696v-48.281c0-12.272-2.816-21.928-8.449-28.969-5.632 8.047-8.449 20.922-8.449 38.625v3.621l1.207 21.727c4.024 53.11 18.508 79.664 43.453 79.664h2.414c9.254 0 17.301-2.816 24.141-8.45l1.207 6.036 1.509-2.112 6.186 29.421c0 17.401-5.633 37.519-16.899 60.352-3.52 14.283-15.037 21.424-34.55 21.424l-4.829-1.207c-24.945-8.248-37.418-22.028-37.418-41.34 6.236-19.313 15.088-28.97 26.555-28.97h1.207c4.526 0 7.343 2.012 8.45 6.036l-3.622 18.105 1.207 1.207c12.875-5.632 19.313-11.668 19.313-18.105v-1.207c0-10.461-8.45-17.703-25.348-21.727h-2.414c-17.905 0-29.572 14.887-35.004 44.66l2.414 14.485c13.68 28.365 31.383 42.548 53.11 42.548zm54.618-259.965h-3.62l-3.622-3.62 6.035-1.208h4.829v1.207c-2.414 0-3.622 1.207-3.622 3.621zm-9.656 2.414h-1.207v-2.414h1.207v2.414zm18.106 4.829l-3.621-1.207v-1.208l1.207-1.207 2.414 2.415v1.207zm-15.692 10.863h-1.207v-2.414l1.207-6.035h1.207v1.207l-1.207 7.242zm6.035 74.836h-1.207V285.78l3.622-22.933c2.816 0 5.632 9.254 8.449 27.761 0 14.988-3.621 32.69-10.864 53.11zm12.07-70.008h-1.206l-1.207-6.035v-1.207h1.207l1.207 3.62v3.622zm-19.312 0h-1.207v-3.621h1.207v3.62zm-6.035 3.621h-1.207v-3.621h1.207v3.621zm4.828 4.828h-1.207v-6.035h1.207v6.035zm-63.972 0h-1.207v-4.828h1.207v4.828zm56.73 8.45h-1.207v-3.622l1.207-8.449h1.207v2.414l-1.207 9.656zm6.035 26.554h-1.207l-2.414-10.863 2.414-22.934h1.207v33.797zm-70.008-9.656h-1.207v-15.692h1.207v15.692zm1.207 9.656h-1.207v-7.242h1.207v7.242zm1.207 6.035h-1.207v-2.414h1.207v2.414zm47.075 56.73h-4.828v-1.206c4.325 0 10.762-3.621 19.312-10.864v1.207c-1.308 3.22-6.136 6.84-14.484 10.864zm-28.064 52.054h-1.207v-3.621h1.207v3.62zm-12.07 70.31h-2.414v-1.208h2.414v1.207zm8.45 2.414h-2.415l-4.828-1.207v-1.208h1.207l6.035 1.208v1.207zm12.07 1.207H1528v-1.207h10.863v1.207z" id="a"/><path d="M532.7 731.56c7.56 0 13.907-1.12 19.04-3.36 5.133-2.24 8.937-5.273 11.41-9.1 2.473-3.827 3.71-8.027 3.71-12.6 0-5.693-1.47-10.243-4.41-13.65-2.94-3.407-6.557-5.927-10.85-7.56-4.293-1.633-9.987-3.337-17.08-5.11-6.533-1.587-11.737-3.127-15.61-4.62-3.873-1.493-7.14-3.663-9.8-6.51-2.66-2.847-3.99-6.65-3.99-11.41 0-6.067 2.45-11.083 7.35-15.05 4.9-3.967 12.11-5.95 21.63-5.95 4.573 0 9.217.723 13.93 2.17 4.713 1.447 8.983 3.57 12.81 6.37l2.1-3.78c-3.64-2.8-8.05-4.993-13.23-6.58-5.18-1.587-10.43-2.38-15.75-2.38-7.467 0-13.697 1.143-18.69 3.43-4.993 2.287-8.703 5.343-11.13 9.17-2.427 3.827-3.64 8.027-3.64 12.6 0 5.787 1.493 10.407 4.48 13.86 2.987 3.453 6.627 6.02 10.92 7.7 4.293 1.68 9.987 3.407 17.08 5.18 6.627 1.587 11.853 3.103 15.68 4.55 3.827 1.447 7.047 3.593 9.66 6.44 2.613 2.847 3.92 6.603 3.92 11.27 0 6.067-2.497 11.037-7.49 14.91-4.993 3.873-12.39 5.81-22.19 5.81-6.627 0-12.857-1.19-18.69-3.57-5.833-2.38-10.383-5.437-13.65-9.17l-2.52 3.36c3.453 4.013 8.377 7.28 14.77 9.8 6.393 2.52 13.137 3.78 20.23 3.78zm131.62-.56v-93.66h35.98V633h-76.58v4.34h35.98V731h4.62zm143.66.56c9.52 0 18.153-2.147 25.9-6.44 7.747-4.293 13.813-10.22 18.2-17.78 4.387-7.56 6.58-16.007 6.58-25.34 0-9.333-2.193-17.78-6.58-25.34-4.387-7.56-10.453-13.487-18.2-17.78-7.747-4.293-16.38-6.44-25.9-6.44s-18.13 2.147-25.83 6.44c-7.7 4.293-13.743 10.22-18.13 17.78-4.387 7.56-6.58 16.007-6.58 25.34 0 9.333 2.193 17.78 6.58 25.34 4.387 7.56 10.43 13.487 18.13 17.78 7.7 4.293 16.31 6.44 25.83 6.44zm0-4.34c-8.587 0-16.357-1.96-23.31-5.88-6.953-3.92-12.437-9.333-16.45-16.24-4.013-6.907-6.02-14.607-6.02-23.1 0-8.493 2.007-16.193 6.02-23.1s9.497-12.32 16.45-16.24c6.953-3.92 14.723-5.88 23.31-5.88 8.587 0 16.38 1.96 23.38 5.88s12.507 9.333 16.52 16.24c4.013 6.907 6.02 14.607 6.02 23.1 0 8.493-2.007 16.193-6.02 23.1s-9.52 12.32-16.52 16.24c-7 3.92-14.793 5.88-23.38 5.88zM939.32 731v-32.9h29.26c3.92 0 7.467-.28 10.64-.84l24.22 33.74h5.6l-25.06-34.86c7.56-2.053 13.37-5.717 17.43-10.99 4.06-5.273 6.09-11.83 6.09-19.67 0-10.173-3.43-18.13-10.29-23.87-6.86-5.74-16.403-8.61-28.63-8.61h-34.02v98h4.76zm29.54-37.24h-29.54v-56.42h29.54c10.92 0 19.32 2.45 25.2 7.35 5.88 4.9 8.82 11.83 8.82 20.79 0 9.053-2.94 16.03-8.82 20.93-5.88 4.9-14.28 7.35-25.2 7.35zM1151.3 731v-4.34h-61.46V683.4h53.2v-4.34h-53.2v-41.72h59.5V633h-64.26v98h66.22z" id="b"/></defs><g fill="none"><use fill="#000" xlink:href="#a"/><use fill="#636E72" xlink:href="#a"/><path d="M669.089 260.23l-14.361 73.025a14.378 14.378 0 0014.972 17.111l68.035-4.176a14.43 14.43 0 0012.29-8.555l12.188-27.735a7.391 7.391 0 00-2.818-9.268c-25.836-16.432-52.35-31.777-79.646-45.594a7.426 7.426 0 00-10.66 5.192z" fill="#F7C3C4"/><path d="M57.279 64.945l-.843.361-50.908 18.87a6.415 6.415 0 00-4.1 6.1v.04c0 20.8-.2 41.633-.321 62.429-.08 15.417-.161 30.873-.08 46.33a6.27 6.27 0 0012 2.489l55.4-126.023a8.168 8.168 0 00-11.148-10.596z" fill="#F7F09B"/><path d="M1422.366 437.17l-43.6-12.646c-7.503-3.501-16.432-.43-20.194 6.946l-40.75 54.038c-6.745 13.208 7.186 27.38 20.475 20.837l84.35-41.392a15.402 15.402 0 008.614-13.98 15.402 15.402 0 00-8.895-13.803z" fill="#F7C3C4"/><path d="M1617.413 202.488a4.073 4.073 0 00-.751 6.815 467.948 467.948 0 0051.027 36.2 351.334 351.334 0 0015.48 8.902 3.986 3.986 0 005.829-4.015l-7.172-62.552a10.807 10.807 0 00-15.303-8.701l-49.11 23.351z" fill="#F7F09B"/><path d="M119.189 432.668a13.062 13.062 0 00-10.4 15.3l9.555 50.546a11.878 11.878 0 0015.7 9.8l28.264-9.756c6.22-2.14 9.526-8.916 7.387-15.136l-14.373-41.834a16.035 16.035 0 00-15.939-10.8 183.84 183.84 0 00-20.194 1.88zm1226.752-208.243a7.717 7.717 0 008.19 3.774h.04c15.176-2.85 30.552-3.613 45.929-3.814a7.6 7.6 0 007.186-5.46l6.785-22.6a11.919 11.919 0 00-12.406-15.3c-16.059 1.365-40.187 3.372-57.009 4.778a12.513 12.513 0 00-9.916 18.548c3.372 6.023 7.266 13.048 11.201 20.074z" fill="#A8DBDC"/><path d="M542.872 206.618a177.86 177.86 0 015.3-10.759 13.339 13.339 0 00-12.084-19.512c-5.9.12-11.763.281-17.665.562-22.081 1-44.764 3.453-64.878 11.884a13.267 13.267 0 00-6.825 17.825c.04.08.04.12.08.2a13.356 13.356 0 0011.884 7.789c24.048.4 48.137.04 72.185-.161a13.524 13.524 0 0012.003-7.828z" fill="#F7C3C4"/><path d="M952.083 466.263c4.991-8.691 10.151-17.314 15.379-25.87a6.413 6.413 0 00-5.636-9.777c-31.603.847-63.281.538-94.922.335a6.429 6.429 0 00-4.381 11.169c5.5 5.025 10.83 10.253 15.99 15.549a490.18 490.18 0 0141.352 48.887 6.392 6.392 0 0010.864-.917 890.926 890.926 0 0121.354-39.376z" fill="#F7F09B"/><use fill="#000" xlink:href="#b"/><use fill="#636E72" xlink:href="#b"/></g></svg>