<?xml version="1.0" encoding="UTF-8"?>
<svg width="1699px" height="766px" viewBox="0 0 1699 766" version="1.1" xmlns="http://www.w3.org/2000/svg" xmlns:xlink="http://www.w3.org/1999/xlink">
    <title>missfantasystore 5</title>
    <defs>
        <path d="M285.813094,453.558594 C292.049422,453.558594 296.072859,451.546875 297.883406,447.523438 L297.883406,447.523438 L296.676375,442.695313 L296.676375,441.488281 L297.883406,440.28125 C297.883406,437.0625 293.859969,435.050781 285.813094,434.246094 C270.524031,422.980469 262.8795,408.496094 262.8795,390.792969 L262.8795,390.792969 L262.8795,358.203125 L265.293563,341.304688 C285.41075,272.604492 295.469344,223.920898 295.469344,195.253906 C295.469344,183.686523 294.262313,173.62793 291.84825,165.078125 C280.482039,135.304688 265.192977,120.417969 245.981063,120.417969 L245.981063,120.417969 L244.774031,120.417969 C232.703719,120.417969 214.195906,133.695313 189.250594,160.25 C188.244734,149.789063 187.037703,144.558594 185.6295,144.558594 C185.6295,133.494141 171.145125,126.251953 142.176375,122.832031 L142.176375,122.832031 L138.555281,122.832031 C122.763289,122.832031 107.87657,134.5 93.895125,157.835938 L93.895125,157.835938 L92.6880938,157.835938 C88.1617266,145.765625 82.9312578,139.730469 76.9966875,139.730469 L76.9966875,139.730469 L73.3755938,139.730469 L70.9615313,142.144531 L70.9615313,145.765625 C75.2867266,151.297852 80.1148516,161.356445 85.4459063,175.941406 C85.3453203,180.870117 82.5289141,188.112305 76.9966875,197.667969 C68.145125,217.081055 59.2935625,269.385742 50.442,354.582031 C50.442,380.130859 58.0865313,395.017578 73.3755938,399.242188 L73.3755938,399.242188 L78.2037188,399.242188 C84.5406328,399.242188 90.5757891,394.011719 96.3091875,383.550781 C109.184188,336.476563 115.621688,303.886719 115.621688,285.78125 L115.621688,285.78125 L115.621688,280.953125 C115.621688,246.351563 110.391219,211.75 99.9302813,177.148438 L99.9302813,177.148438 L99.9302813,175.941406 C112.201766,150.996094 128.295516,138.523438 148.211531,138.523438 L148.211531,138.523438 L153.039656,138.523438 C171.547469,138.523438 180.801375,151.398438 180.801375,177.148438 L180.801375,177.148438 L180.801375,185.597656 C167.121688,226.033203 160.281844,250.576172 160.281844,259.226563 L160.281844,259.226563 L160.281844,266.46875 C162.394148,276.125 164.405867,280.953125 166.317,280.953125 C173.659773,280.953125 181.706648,260.835938 190.457625,220.601563 C192.670516,190.023438 194.682234,174.734375 196.492781,174.734375 C210.675398,149.789063 225.562117,137.316406 241.152938,137.316406 C246.886336,137.316406 251.312117,138.121094 254.430281,139.730469 C271.328719,150.895508 279.777938,168.598633 279.777938,192.839844 C279.777938,207.324219 276.961531,224.625 271.328719,244.742188 C252.016219,305.496094 242.359969,346.9375 242.359969,369.066406 L242.359969,369.066406 L242.359969,379.929688 L243.567,394.414063 C248.193953,433.84375 262.275984,453.558594 285.813094,453.558594 Z M249.602156,127.660156 L241.152938,127.660156 L241.152938,126.453125 L249.602156,126.453125 L249.602156,127.660156 Z M277.363875,151.800781 L276.156844,151.800781 C272.938094,144.558594 270.524031,140.9375 268.914656,140.9375 L268.914656,140.9375 L268.914656,139.730469 L277.363875,149.386719 L277.363875,151.800781 Z M75.7896563,383.550781 C71.1627031,383.550781 67.5416094,378.320313 64.926375,367.859375 L64.926375,367.859375 L64.926375,366.652344 C71.363875,313.040039 79.8130938,256.30957 90.2740313,196.460938 L90.2740313,196.460938 L91.4810625,196.460938 C95.5045,218.288086 97.5162188,239.209961 97.5162188,259.226563 L97.5162188,259.226563 L95.1021563,349.753906 C90.5757891,367.155273 84.1382891,378.420898 75.7896563,383.550781 Z M104.758406,236.292969 L103.551375,236.292969 L103.551375,232.671875 L104.758406,232.671875 L104.758406,236.292969 Z M104.758406,314.75 L103.551375,314.75 L103.551375,313.542969 L104.758406,288.195313 L104.758406,237.5 L105.965438,237.5 L108.3795,260.433594 L104.758406,314.75 Z M287.020125,242.328125 L285.813094,242.328125 L285.813094,239.914063 L287.020125,239.914063 L287.020125,242.328125 Z M285.813094,248.363281 L284.606063,248.363281 L284.606063,244.742188 L285.813094,244.742188 L285.813094,248.363281 Z M284.606063,253.191406 L283.399031,253.191406 L283.399031,249.570313 L284.606063,249.570313 L284.606063,253.191406 Z M283.399031,259.226563 L282.192,259.226563 L282.192,255.605469 L283.399031,255.605469 L283.399031,259.226563 Z M282.192,264.054688 L280.984969,264.054688 L280.984969,260.433594 L282.192,260.433594 L282.192,264.054688 Z M280.984969,268.882813 L279.777938,268.882813 L279.777938,265.261719 L280.984969,265.261719 L280.984969,268.882813 Z M279.777938,273.710938 L278.570906,273.710938 L278.570906,270.089844 L279.777938,270.089844 L279.777938,273.710938 Z M276.156844,286.988281 L274.949813,286.988281 L274.949813,285.78125 L277.363875,274.917969 L278.570906,274.917969 L278.570906,276.125 L276.156844,286.988281 Z M274.949813,291.816406 L273.742781,291.816406 L273.742781,288.195313 L274.949813,288.195313 L274.949813,291.816406 Z M273.742781,296.644531 L272.53575,296.644531 L272.53575,293.023438 L273.742781,293.023438 L273.742781,296.644531 Z M272.53575,300.265625 L271.328719,300.265625 L271.328719,297.851563 L272.53575,297.851563 L272.53575,300.265625 Z M271.328719,305.09375 L270.121688,305.09375 L270.121688,301.472656 L271.328719,301.472656 L271.328719,305.09375 Z M270.121688,308.714844 L268.914656,308.714844 L268.914656,306.300781 L270.121688,306.300781 L270.121688,308.714844 Z M268.914656,313.542969 L267.707625,313.542969 L267.707625,311.128906 L268.914656,311.128906 L268.914656,313.542969 Z M61.3052813,318.371094 L60.09825,318.371094 L60.09825,315.957031 L61.3052813,315.957031 L61.3052813,318.371094 Z M60.09825,325.613281 L58.8912188,325.613281 L58.8912188,321.992188 L60.09825,321.992188 L60.09825,325.613281 Z M58.8912188,335.269531 L57.6841875,335.269531 L57.6841875,329.234375 L58.8912188,329.234375 L58.8912188,335.269531 Z M57.6841875,364.238281 L56.4771563,364.238281 L56.4771563,338.890625 L57.6841875,338.890625 L57.6841875,364.238281 Z M256.844344,364.238281 L255.637313,364.238281 L255.637313,358.203125 L256.844344,358.203125 L256.844344,364.238281 Z M268.914656,423.382813 C260.867781,416.140625 256.844344,410.105469 256.844344,405.277344 L256.844344,405.277344 L258.051375,390.792969 L259.258406,390.792969 C259.258406,406.283203 262.477156,416.744141 268.914656,422.175781 L268.914656,422.175781 L268.914656,423.382813 Z M283.399031,447.523438 C279.777938,447.523438 274.547469,445.511719 267.707625,441.488281 L267.707625,441.488281 L267.707625,440.28125 C273.843367,443.5 280.683211,445.109375 288.227156,445.109375 L288.227156,445.109375 L288.227156,446.316406 L283.399031,447.523438 Z M342.392684,249.419434 C344.806746,249.620605 346.214949,247.709473 346.617293,243.686035 C366.633895,221.758301 376.994246,207.475098 377.698348,200.836426 C376.189559,188.464355 371.160262,181.875977 362.610457,181.071289 C351.847762,179.964844 343.147078,185.949707 336.508406,199.025879 L336.508406,199.025879 L333.18907,196.310059 L324.739852,195.404785 L323.53282,196.460938 L323.53282,195.253906 C316.793563,194.650391 311.563094,198.573242 307.841414,207.022461 C307.539656,210.040039 309.702254,216.729004 314.329207,227.089355 C324.991316,241.171387 334.345809,248.614746 342.392684,249.419434 Z M372.417586,203.854004 L371.210555,203.703125 C369.198836,193.041016 364.52159,187.307617 357.178816,186.50293 L357.178816,186.50293 L357.329695,185.446777 L360.950789,185.748535 C367.891219,186.452637 371.763777,192.085449 372.568465,202.646973 L372.568465,202.646973 L372.417586,203.854004 Z M345.259383,196.310059 L344.052352,196.15918 C344.253523,194.248047 347.824324,190.979004 354.764754,186.352051 L354.764754,186.352051 L355.971785,186.50293 L345.259383,196.310059 Z M354.764754,199.629395 L353.557723,199.478516 L358.838484,195.253906 L360.950789,197.818848 L360.79991,199.025879 L354.764754,199.629395 Z M316.592391,204.306641 L315.385359,204.155762 L315.687117,201.741699 L316.894148,201.892578 L316.592391,204.306641 Z M338.620711,238.103516 C327.455672,228.447266 322.225203,220.249512 322.929305,213.510254 L322.929305,213.510254 L323.381941,208.682129 L326.097762,206.418945 L328.511824,206.720703 C332.937605,217.282227 336.005477,222.864746 337.715437,223.468262 L337.715437,223.468262 L338.922469,223.619141 L340.280379,222.412109 C343.499129,209.03418 348.981062,202.747559 356.72618,203.552246 C356.323836,207.17334 350.28868,218.69043 338.620711,238.103516 Z M357.782332,216.980469 L356.575301,216.82959 L356.72618,215.622559 L360.196395,205.061035 L361.403426,205.211914 L361.101668,208.833008 L357.782332,216.980469 Z M314.630965,212.60498 L313.423934,212.454102 L314.027449,205.211914 L315.23448,205.362793 L314.630965,212.60498 Z M359.592879,391.849121 C378.704207,393.760254 392.786238,382.243164 401.838973,357.297852 L401.838973,357.297852 L402.291609,352.469727 C403.398055,342.109375 396.306746,336.124512 381.017684,334.515137 L381.017684,334.515137 L375.736922,338.890625 L375.435164,342.511719 L378.603621,347.641602 L382.224715,346.887207 C388.360457,350.307129 391.277449,353.827637 390.975691,357.44873 C389.76866,369.418457 380.514754,376.560059 363.213973,378.873535 L363.213973,378.873535 L357.329695,378.27002 L350.238387,376.308594 C335.653426,367.758789 329.316512,354.179688 331.227645,335.571289 L331.227645,335.571289 L339.375105,291.514648 C340.582137,279.444336 337.514266,269.838379 330.171492,262.696777 L330.171492,262.696777 L328.964461,262.545898 C324.739852,262.143555 318.805281,280.550781 311.16075,317.767578 L311.16075,317.767578 L311.462508,339.64502 C318.302352,371.933105 333.138777,389.233887 355.971785,391.547363 L355.971785,391.547363 L359.592879,391.849121 Z M334.245223,282.461914 L333.038191,282.461914 L331.378523,274.917969 L331.529402,272.503906 L332.736434,272.654785 L334.396102,280.047852 L334.245223,282.461914 Z M327.003035,305.999023 L325.796004,305.999023 L326.852156,295.135742 L328.059188,295.286621 L327.003035,305.999023 Z M330.925887,314.900879 L329.718855,314.75 L330.775008,304.037598 L331.982039,304.188477 L330.925887,314.900879 Z M316.290633,326.820313 L315.23448,326.669434 L315.837996,319.427246 L317.045027,319.578125 L316.290633,326.820313 Z M318.10118,345.227539 L316.894148,345.07666 L317.346785,341.455566 L318.553816,341.606445 L318.10118,345.227539 Z M319.006453,348.848633 L317.799422,348.848633 L317.950301,346.43457 L319.157332,346.585449 L319.006453,348.848633 Z M319.760848,352.620605 L318.553816,352.469727 L318.855574,350.055664 L320.062605,350.206543 L319.760848,352.620605 Z M494.780379,376.912109 C508.460066,375.302734 515.29991,368.865234 515.29991,357.599609 L515.29991,357.599609 L515.29991,340.701172 C515.29991,328.429688 506.850691,316.761719 489.952254,305.697266 C462.592879,294.833984 448.913191,283.970703 448.913191,273.107422 C452.936629,259.427734 458.569441,252.587891 465.811629,252.587891 L465.811629,252.587891 L469.432723,252.587891 C473.355574,252.587891 478.183699,255.404297 483.917098,261.037109 C479.088973,269.083984 476.67491,275.119141 476.67491,279.142578 L476.67491,279.142578 L476.67491,280.349609 C479.491316,284.574219 482.710066,287.390625 486.33116,288.798828 C493.573348,276.62793 497.194441,268.178711 497.194441,263.451172 C497.194441,251.380859 488.745223,244.138672 471.846785,241.724609 L471.846785,241.724609 L470.639754,241.724609 C450.522566,244.44043 440.463973,253.291992 440.463973,268.279297 L440.463973,268.279297 L440.463973,273.107422 C440.463973,279.947266 444.889754,287.591797 453.741316,296.041016 C484.319441,309.519531 499.608504,325.210938 499.608504,343.115234 L499.608504,343.115234 L499.608504,349.150391 C499.608504,358.806641 493.573348,363.634766 481.503035,363.634766 L481.503035,363.634766 L470.639754,362.427734 C440.061629,350.759766 424.772566,338.287109 424.772566,325.009766 C424.873152,321.791016 428.091902,318.572266 434.428816,315.353516 C438.452254,315.353516 440.463973,314.548828 440.463973,312.939453 L440.463973,312.939453 L440.463973,308.111328 L439.256941,306.904297 L434.428816,306.904297 C419.944441,306.904297 412.702254,315.353516 412.702254,332.251953 L412.702254,332.251953 L413.909285,337.080078 C431.813582,363.634766 453.540145,376.912109 479.088973,376.912109 L479.088973,376.912109 L494.780379,376.912109 Z M505.64366,349.150391 L504.436629,349.150391 C504.436629,340.902344 503.229598,334.464844 500.815535,329.837891 L500.815535,329.837891 L500.815535,328.630859 L502.022566,328.630859 L506.850691,340.701172 L505.64366,349.150391 Z M459.776473,363.634766 L457.36241,363.634766 L457.36241,362.427734 L459.776473,362.427734 L459.776473,363.634766 Z M498.401473,372.083984 L497.194441,372.083984 L497.194441,370.876953 C499.507918,370.876953 503.531355,368.060547 509.264754,362.427734 C509.264754,366.451172 505.64366,369.669922 498.401473,372.083984 L498.401473,372.083984 Z M609.750105,376.912109 C623.429793,375.302734 630.269637,368.865234 630.269637,357.599609 L630.269637,357.599609 L630.269637,340.701172 C630.269637,328.429688 621.820418,316.761719 604.92198,305.697266 C577.562605,294.833984 563.882918,283.970703 563.882918,273.107422 C567.906355,259.427734 573.539168,252.587891 580.781355,252.587891 L580.781355,252.587891 L584.402449,252.587891 C588.325301,252.587891 593.153426,255.404297 598.886824,261.037109 C594.058699,269.083984 591.644637,275.119141 591.644637,279.142578 L591.644637,279.142578 L591.644637,280.349609 C594.461043,284.574219 597.679793,287.390625 601.300887,288.798828 C608.543074,276.62793 612.164168,268.178711 612.164168,263.451172 C612.164168,251.380859 603.714949,244.138672 586.816512,241.724609 L586.816512,241.724609 L585.60948,241.724609 C565.492293,244.44043 555.433699,253.291992 555.433699,268.279297 L555.433699,268.279297 L555.433699,273.107422 C555.433699,279.947266 559.85948,287.591797 568.711043,296.041016 C599.289168,309.519531 614.57823,325.210938 614.57823,343.115234 L614.57823,343.115234 L614.57823,349.150391 C614.57823,358.806641 608.543074,363.634766 596.472762,363.634766 L596.472762,363.634766 L585.60948,362.427734 C555.031355,350.759766 539.742293,338.287109 539.742293,325.009766 C539.842879,321.791016 543.061629,318.572266 549.398543,315.353516 C553.42198,315.353516 555.433699,314.548828 555.433699,312.939453 L555.433699,312.939453 L555.433699,308.111328 L554.226668,306.904297 L549.398543,306.904297 C534.914168,306.904297 527.67198,315.353516 527.67198,332.251953 L527.67198,332.251953 L528.879012,337.080078 C546.783309,363.634766 568.509871,376.912109 594.058699,376.912109 L594.058699,376.912109 L609.750105,376.912109 Z M620.613387,349.150391 L619.406355,349.150391 C619.406355,340.902344 618.199324,334.464844 615.785262,329.837891 L615.785262,329.837891 L615.785262,328.630859 L616.992293,328.630859 L621.820418,340.701172 L620.613387,349.150391 Z M574.746199,363.634766 L572.332137,363.634766 L572.332137,362.427734 L574.746199,362.427734 L574.746199,363.634766 Z M613.371199,372.083984 L612.164168,372.083984 L612.164168,370.876953 C614.477645,370.876953 618.501082,368.060547 624.23448,362.427734 C624.23448,366.451172 620.613387,369.669922 613.371199,372.083984 L613.371199,372.083984 Z M788.692488,423.835449 L796.839949,420.214355 C814.442488,395.973145 819.119734,347.691895 810.871688,275.370605 L810.871688,275.370605 L808.306746,257.416016 L809.664656,258.472168 C861.768172,248.916504 888.775496,241.825195 890.686629,237.198242 C878.51573,231.56543 856.889754,230.961914 825.808699,235.387695 L825.808699,235.387695 L812.682234,237.349121 L804.534773,239.612305 L802.875105,236.292969 L801.366316,216.980469 L799.404891,203.854004 C795.884383,179.109863 790.100691,158.38916 782.053816,141.691895 L782.053816,141.691895 L781.902938,140.484863 C799.807234,137.970215 835.515242,134.902344 889.026961,131.28125 L889.026961,131.28125 L890.233992,131.130371 C916.084578,124.189941 928.708113,118.758301 928.104598,114.835449 L928.104598,114.835449 L927.953719,113.628418 L925.08702,110.309082 L916.939559,112.723145 L913.318465,113.175781 C855.079207,117.299805 815.14659,119.361816 793.520613,119.361816 C781.651473,122.077637 775.968367,124.894043 776.471297,127.811035 L776.471297,127.811035 L775.264266,127.961914 L773.906355,127.056641 L771.492293,127.358398 L768.172957,130.225098 L762.137801,129.92334 L760.025496,132.63916 C779.539168,183.736816 790.100691,215.169922 791.710066,226.938477 L791.710066,226.938477 L793.97325,242.328125 C780.59532,245.848633 774.057234,248.413574 774.358992,250.022949 L774.358992,250.022949 L774.66075,252.437012 C775.063094,255.45459 782.305281,257.66748 796.387313,259.075684 C799.103133,294.481934 799.606063,312.285645 797.896102,312.486816 C785.624617,366.300293 780.192977,398.085449 781.60118,407.842285 L781.60118,407.842285 L782.506453,413.726563 C783.311141,419.862305 785.373152,423.231934 788.692488,423.835449 L788.692488,423.835449 Z M871.525008,127.660156 L871.374129,126.453125 L873.788191,126.151367 L873.93907,127.358398 L871.525008,127.660156 Z M831.542098,129.772461 L831.391219,128.56543 L839.689559,127.358398 L839.840438,128.56543 L831.542098,129.772461 Z M846.026473,128.867188 L845.875594,127.660156 L848.289656,127.358398 L848.440535,128.56543 L846.026473,128.867188 Z M788.239852,133.544434 L788.088973,132.337402 L804.685652,129.92334 L828.826277,127.660156 L828.977156,128.867188 L822.942,129.772461 L788.239852,133.544434 Z M775.415145,154.818359 L775.113387,152.404297 L776.169539,152.253418 L776.622176,154.66748 L775.415145,154.818359 Z M806.194441,251.682617 L806.043563,250.475586 L839.53868,245.647461 L839.689559,246.854492 L806.194441,251.682617 Z M806.647078,370.122559 L806.34532,367.708496 L806.948836,316.10791 L808.155867,315.957031 L808.457625,318.371094 L807.854109,369.820801 L806.647078,370.122559 Z M806.194441,374.950684 L805.741805,371.480469 L806.948836,371.32959 L807.401473,374.799805 L806.194441,374.950684 Z M805.741805,379.929688 L805.138289,376.308594 L806.34532,376.157715 L806.948836,379.778809 L805.741805,379.929688 Z M804.98741,383.70166 L804.685652,381.287598 L805.892684,381.136719 L806.194441,383.550781 L804.98741,383.70166 Z M898.532332,368.764648 C903.159285,387.574219 910.904402,396.224609 921.767684,394.71582 L921.767684,394.71582 L922.974715,394.564941 L924.030867,393.207031 C942.53868,390.491211 957.27452,377.364746 968.238387,353.827637 C969.847762,353.626465 971.457137,356.241699 973.066512,361.67334 C979.906355,374.54834 989.260848,380.130859 1001.12999,378.420898 L1001.12999,378.420898 L1005.95811,377.666504 C1017.22374,376.057129 1023.00743,368.312012 1023.30919,354.431152 L1023.30919,354.431152 L1023.00743,352.01709 L1021.49864,351.111816 C1008.52305,357.851074 999.721785,361.522461 995.094832,362.125977 L995.094832,362.125977 L993.887801,362.276855 C985.136824,363.584473 979.755477,357.046387 977.743758,342.662598 L977.743758,342.662598 L976.838484,336.77832 L989.512313,257.566895 L989.210555,255.152832 C987.802352,245.597168 980.610457,240.919922 967.634871,241.121094 L967.634871,241.121094 L966.42784,241.271973 C959.185652,242.378418 951.993758,245.898926 944.852156,251.833496 C907.031844,281.70752 891.39073,319.477539 897.928816,365.143555 L897.928816,365.143555 L898.532332,368.764648 Z M926.746688,378.119141 C920.610945,375.202148 916.637801,367.658203 914.827254,355.487305 C912.714949,340.801758 913.670516,327.625 917.693953,315.957031 C926.847273,277.734375 942.488387,257.013672 964.617293,253.794922 C970.652449,252.889648 974.826766,256.359863 977.140242,264.205566 L977.140242,264.205566 L977.592879,267.82666 L969.14366,300.114746 C954.357527,350.206543 940.225203,376.208008 926.746688,378.119141 Z M904.718367,336.174805 L904.567488,334.967773 C903.461043,322.796875 906.931258,307.256348 914.978133,288.346191 L914.978133,288.346191 L916.185164,288.195313 C912.061141,298.958008 908.641219,314.900879 905.925398,336.023926 L905.925398,336.023926 L904.718367,336.174805 Z M904.26573,341.153809 L903.813094,337.532715 L905.020125,337.381836 L905.472762,341.00293 L904.26573,341.153809 Z M1000.37559,373.592773 L989.361434,372.6875 L989.210555,371.631348 L990.417586,371.32959 L997.810652,372.6875 C1009.47862,370.273438 1015.56407,367.406738 1016.067,364.087402 L1016.067,364.087402 L1017.27403,363.785645 C1014.75938,369.116699 1011.13829,372.083984 1006.41075,372.6875 L1006.41075,372.6875 L1000.37559,373.592773 Z M903.963973,372.838379 L902.90782,365.74707 L904.114852,365.445313 L905.171004,372.6875 L903.963973,372.838379 Z M984.080672,369.820801 L982.722762,368.764648 L982.421004,367.708496 L983.628035,367.406738 L984.985945,368.462891 L985.287703,369.669922 L984.080672,369.820801 Z M933.23448,380.834961 L932.932723,379.62793 L941.834578,373.441895 L941.985457,374.648926 C942.287215,376.76123 939.772566,378.772949 934.441512,380.684082 L934.441512,380.684082 L933.23448,380.834961 Z M921.013289,389.887695 C914.978133,390.792969 909.948836,386.668945 905.925398,377.515625 L905.925398,377.515625 L905.321883,373.894531 L906.528914,373.743652 C907.635359,381.388184 914.42491,386.06543 926.897566,387.775391 L926.897566,387.775391 L927.048445,388.982422 L921.013289,389.887695 Z M1130.28233,397.432503 C1126.76182,375.101563 1125.95714,360.466309 1127.86827,353.525879 C1134.00401,310.776855 1136.06602,284.523926 1134.0543,274.76709 L1134.0543,274.76709 L1132.24376,265.261719 C1126.40977,236.494141 1112.02598,222.160645 1089.09239,222.260705 C1073.19981,225.47998 1063.04063,238.204102 1058.61485,260.433594 L1058.61485,260.433594 L1057.40782,260.584473 C1054.59141,246.401855 1048.40538,240.266113 1038.84971,242.177246 L1038.84971,242.177246 L1030.70225,243.836914 L1028.74083,246.703613 L1029.49522,250.173828 C1035.73155,248.966797 1040.60997,257.013672 1044.13048,274.314453 L1044.13048,274.314453 L1044.58311,276.728516 L1046.39366,297.248047 C1041.26378,337.080078 1039.90587,363.232422 1042.31993,375.705078 L1042.31993,375.705078 L1045.03575,388.680664 L1047.90245,390.64209 C1049.61241,387.825684 1052.42882,385.612793 1056.35167,384.003418 C1061.07921,362.276855 1063.64415,334.263672 1064.04649,299.963867 C1058.91661,274.314453 1066.66173,255.504883 1087.28184,243.535156 L1087.28184,243.535156 L1089.54503,243.08252 C1098.89952,241.171387 1106.24229,249.117676 1111.57335,266.921387 C1113.78624,277.784668 1114.44005,287.088867 1113.53477,294.833984 C1110.21544,331.447266 1110.01427,356.945801 1112.93126,371.32959 C1115.44591,388.831543 1121.2296,397.532227 1130.28233,397.432503 Z M1081.69932,234.78418 L1081.54845,233.577148 L1090.4503,229.352539 L1100.40831,229.805176 L1100.71007,231.012207 L1099.50304,231.163086 L1095.73106,230.710449 L1085.32042,234.029785 L1081.69932,234.78418 Z M1118.96641,272.805664 L1118.21202,269.335449 C1114.89268,252.839355 1106.59434,242.177246 1093.317,237.349121 L1093.317,237.349121 L1093.16612,236.14209 L1094.37315,235.991211 L1101.61534,235.689453 C1108.75694,234.28125 1114.69151,245.395996 1119.41905,269.033691 L1119.41905,269.033691 L1120.17345,272.654785 L1118.96641,272.805664 Z M1050.61827,281.70752 L1050.31651,280.500488 L1050.61827,275.521484 C1047.70128,265.060547 1044.33165,256.711914 1040.50938,250.475586 L1040.50938,250.475586 L1041.71641,250.173828 C1047.04747,251.984375 1050.71886,257.818359 1052.73057,267.675781 L1052.73057,267.675781 L1053.18321,270.089844 L1051.67442,281.405762 L1050.61827,281.70752 Z M1118.3629,343.115234 L1118.06114,341.908203 L1117.91026,334.666016 L1118.06114,274.314453 L1119.26817,274.012695 L1120.62608,281.104004 C1122.03429,287.943848 1121.68223,308.563965 1119.56993,342.964355 L1119.56993,342.964355 L1118.3629,343.115234 Z M1126.81212,281.104004 L1125.60509,275.219727 L1126.81212,274.917969 L1128.01915,280.953125 L1126.81212,281.104004 Z M1126.81212,293.476074 L1126.05772,289.85498 L1125.90684,282.612793 L1126.963,282.311035 L1127.56651,284.725098 L1128.01915,293.174316 L1126.81212,293.476074 Z M1126.51036,298.455078 L1125.90684,294.833984 L1126.963,294.683105 L1127.71739,298.15332 L1126.51036,298.455078 Z M1046.39366,340.399414 L1045.94102,337.985352 L1047.14805,337.834473 L1047.60069,340.097656 L1046.39366,340.399414 Z M1046.0919,345.378418 L1045.48839,341.757324 L1046.54454,341.606445 L1047.29893,345.07666 L1046.0919,345.378418 Z M1045.94102,350.357422 L1045.18663,346.736328 L1046.39366,346.585449 L1047.14805,350.055664 L1045.94102,350.357422 Z M1045.63927,361.522461 L1045.18663,359.108398 L1045.03575,351.715332 L1046.0919,351.564453 L1046.69542,353.827637 L1046.8463,361.220703 L1045.63927,361.522461 Z M1045.63927,367.557617 L1044.73399,362.880371 L1045.94102,362.578613 L1046.8463,367.406738 L1045.63927,367.557617 Z M1216.88682,423.835449 C1242.43565,419.208496 1255.81358,410.859863 1257.02061,398.789551 L1257.02061,398.789551 L1257.17149,397.58252 L1254.00304,393.659668 C1229.46007,404.120605 1214.37218,409.049316 1208.73936,408.445801 L1208.73936,408.445801 L1195.91466,403.617676 C1176.70274,370.32373 1169.76231,337.432129 1175.09337,304.942871 C1180.42442,272.453613 1184.54845,249.620605 1187.46544,236.443848 L1187.46544,236.443848 L1221.71495,230.106934 L1226.54307,230.710449 L1230.46593,227.391113 L1230.76768,224.977051 C1230.6671,221.154785 1217.13829,219.796875 1190.18126,220.90332 L1190.18126,220.90332 L1188.97423,220.90332 L1190.63389,205.211914 C1193.95323,172.420898 1192.0421,155.67334 1184.9005,154.969238 L1184.9005,154.969238 L1183.69346,154.818359 C1181.9835,160.25 1180.47471,162.915527 1179.1671,162.814941 L1179.1671,162.814941 L1179.01622,200.383789 L1175.84776,219.54541 L1173.4337,219.243652 C1162.77159,218.137207 1155.68028,220.249512 1152.15977,225.580566 L1152.15977,225.580566 L1151.85802,227.994629 C1151.65684,230.408691 1157.94346,232.269531 1170.71788,233.577148 L1170.71788,233.577148 L1164.8336,268.128418 L1164.53184,271.749512 C1159.50255,369.116699 1175.34483,419.661133 1212.0587,423.382813 L1212.0587,423.382813 L1216.88682,423.835449 Z M1176.14952,240.21582 L1174.94249,240.064941 L1175.24425,237.650879 L1176.45128,237.801758 L1176.14952,240.21582 Z M1169.35997,320.181641 L1167.85118,310.525391 L1170.26524,274.76709 L1170.86876,268.731934 L1173.28282,256.8125 L1174.48985,256.963379 L1169.35997,320.181641 Z M1243.29063,403.466797 C1235.14317,409.904297 1227.54893,412.770996 1220.50792,412.066895 L1220.50792,412.066895 L1219.30089,412.066895 L1219.45177,410.859863 L1242.0836,403.315918 L1243.29063,403.466797 Z M1232.57823,368.764648 C1237.20518,387.574219 1244.9503,396.224609 1255.81358,394.71582 L1255.81358,394.71582 L1257.02061,394.564941 L1258.07677,393.207031 C1276.58458,390.491211 1291.32042,377.364746 1302.28429,353.827637 C1303.89366,353.626465 1305.50304,356.241699 1307.11241,361.67334 C1313.95225,374.54834 1323.30675,380.130859 1335.17589,378.420898 L1335.17589,378.420898 L1340.00401,377.666504 C1351.26964,376.057129 1357.05333,368.312012 1357.35509,354.431152 L1357.35509,354.431152 L1357.05333,352.01709 L1355.54454,351.111816 C1342.56895,357.851074 1333.76768,361.522461 1329.14073,362.125977 L1329.14073,362.125977 L1327.9337,362.276855 C1319.18272,363.584473 1313.80138,357.046387 1311.78966,342.662598 L1311.78966,342.662598 L1310.88438,336.77832 L1323.55821,257.566895 L1323.25645,255.152832 C1321.84825,245.597168 1314.65636,240.919922 1301.68077,241.121094 L1301.68077,241.121094 L1300.47374,241.271973 C1293.23155,242.378418 1286.03966,245.898926 1278.89805,251.833496 C1241.07774,281.70752 1225.43663,319.477539 1231.97471,365.143555 L1231.97471,365.143555 L1232.57823,368.764648 Z M1260.79259,378.119141 C1254.65684,375.202148 1250.6837,367.658203 1248.87315,355.487305 C1246.76085,340.801758 1247.71641,327.625 1251.73985,315.957031 C1260.89317,277.734375 1276.53429,257.013672 1298.66319,253.794922 C1304.69835,252.889648 1308.87266,256.359863 1311.18614,264.205566 L1311.18614,264.205566 L1311.63878,267.82666 L1303.18956,300.114746 C1288.40343,350.206543 1274.2711,376.208008 1260.79259,378.119141 Z M1238.76427,336.174805 L1238.61339,334.967773 C1237.50694,322.796875 1240.97716,307.256348 1249.02403,288.346191 L1249.02403,288.346191 L1250.23106,288.195313 C1246.10704,298.958008 1242.68712,314.900879 1239.9713,336.023926 L1239.9713,336.023926 L1238.76427,336.174805 Z M1238.31163,341.153809 L1237.85899,337.532715 L1239.06602,337.381836 L1239.51866,341.00293 L1238.31163,341.153809 Z M1334.42149,373.592773 L1323.40733,372.6875 L1323.25645,371.631348 L1324.46348,371.32959 L1331.85655,372.6875 C1343.52452,370.273438 1349.60997,367.406738 1350.1129,364.087402 L1350.1129,364.087402 L1351.31993,363.785645 C1348.80528,369.116699 1345.18419,372.083984 1340.45665,372.6875 L1340.45665,372.6875 L1334.42149,373.592773 Z M1238.00987,372.838379 L1236.95372,365.74707 L1238.16075,365.445313 L1239.2169,372.6875 L1238.00987,372.838379 Z M1318.12657,369.820801 L1316.76866,368.764648 L1316.4669,367.708496 L1317.67393,367.406738 L1319.03184,368.462891 L1319.3336,369.669922 L1318.12657,369.820801 Z M1267.28038,380.834961 L1266.97862,379.62793 L1275.88048,373.441895 L1276.03136,374.648926 C1276.33311,376.76123 1273.81846,378.772949 1268.48741,380.684082 L1268.48741,380.684082 L1267.28038,380.834961 Z M1255.05919,389.887695 C1249.02403,390.792969 1243.99473,386.668945 1239.9713,377.515625 L1239.9713,377.515625 L1239.36778,373.894531 L1240.57481,373.743652 C1241.68126,381.388184 1248.47081,386.06543 1260.94346,387.775391 L1260.94346,387.775391 L1261.09434,388.982422 L1255.05919,389.887695 Z M1444.86485,376.912109 C1458.54454,375.302734 1465.38438,368.865234 1465.38438,357.599609 L1465.38438,357.599609 L1465.38438,340.701172 C1465.38438,328.429688 1456.93516,316.761719 1440.03673,305.697266 C1412.67735,294.833984 1398.99766,283.970703 1398.99766,273.107422 C1403.0211,259.427734 1408.65391,252.587891 1415.8961,252.587891 L1415.8961,252.587891 L1419.5172,252.587891 C1423.44005,252.587891 1428.26817,255.404297 1434.00157,261.037109 C1429.17345,269.083984 1426.75938,275.119141 1426.75938,279.142578 L1426.75938,279.142578 L1426.75938,280.349609 C1429.57579,284.574219 1432.79454,287.390625 1436.41563,288.798828 C1443.65782,276.62793 1447.27891,268.178711 1447.27891,263.451172 C1447.27891,251.380859 1438.8297,244.138672 1421.93126,241.724609 L1421.93126,241.724609 L1420.72423,241.724609 C1400.60704,244.44043 1390.54845,253.291992 1390.54845,268.279297 L1390.54845,268.279297 L1390.54845,273.107422 C1390.54845,279.947266 1394.97423,287.591797 1403.82579,296.041016 C1434.40391,309.519531 1449.69298,325.210938 1449.69298,343.115234 L1449.69298,343.115234 L1449.69298,349.150391 C1449.69298,358.806641 1443.65782,363.634766 1431.58751,363.634766 L1431.58751,363.634766 L1420.72423,362.427734 C1390.1461,350.759766 1374.85704,338.287109 1374.85704,325.009766 C1374.95763,321.791016 1378.17638,318.572266 1384.51329,315.353516 C1388.53673,315.353516 1390.54845,314.548828 1390.54845,312.939453 L1390.54845,312.939453 L1390.54845,308.111328 L1389.34141,306.904297 L1384.51329,306.904297 C1370.02891,306.904297 1362.78673,315.353516 1362.78673,332.251953 L1362.78673,332.251953 L1363.99376,337.080078 C1381.89805,363.634766 1403.62462,376.912109 1429.17345,376.912109 L1429.17345,376.912109 L1444.86485,376.912109 Z M1455.72813,349.150391 L1454.5211,349.150391 C1454.5211,340.902344 1453.31407,334.464844 1450.90001,329.837891 L1450.90001,329.837891 L1450.90001,328.630859 L1452.10704,328.630859 L1456.93516,340.701172 L1455.72813,349.150391 Z M1409.86095,363.634766 L1407.44688,363.634766 L1407.44688,362.427734 L1409.86095,362.427734 L1409.86095,363.634766 Z M1448.48595,372.083984 L1447.27891,372.083984 L1447.27891,370.876953 C1449.59239,370.876953 1453.61583,368.060547 1459.34923,362.427734 C1459.34923,366.451172 1455.72813,369.669922 1448.48595,372.083984 L1448.48595,372.083984 Z M1535.24132,510.741699 L1548.51866,508.327637 C1579.59971,493.64209 1595.14024,466.383301 1595.14024,426.55127 L1595.14024,426.55127 L1595.14024,415.687988 C1592.22325,403.416504 1589.55772,388.378906 1587.14366,370.575195 L1587.14366,370.575195 L1589.85948,366.652344 C1605.14854,341.204102 1612.79307,313.844727 1612.79307,284.574219 L1612.79307,284.574219 L1612.79307,271.296875 C1608.26671,251.179688 1601.02452,241.121094 1591.06651,241.121094 L1591.06651,241.121094 L1587.44542,241.121094 C1575.77745,241.121094 1568.93761,255.605469 1566.92589,284.574219 L1566.92589,284.574219 L1566.92589,309.921875 C1566.92589,324.104492 1568.53526,341.807617 1571.75401,363.03125 C1564.61241,370.273438 1557.77257,374.296875 1551.23448,375.101563 L1551.23448,375.101563 L1547.61339,375.101563 L1540.3712,373.894531 C1526.69151,366.350586 1519.85167,349.452148 1519.85167,323.199219 L1519.85167,323.199219 L1519.85167,274.917969 C1519.85167,262.646484 1517.03526,252.990234 1511.40245,245.949219 C1505.76964,253.996094 1502.95323,266.871094 1502.95323,284.574219 L1502.95323,284.574219 L1502.95323,288.195313 L1504.16026,309.921875 C1508.1837,363.03125 1522.66807,389.585938 1547.61339,389.585938 L1547.61339,389.585938 L1550.02745,389.585938 C1559.28136,389.585938 1567.32823,386.769531 1574.16807,381.136719 L1574.16807,381.136719 L1575.37511,387.171875 L1576.88389,385.05957 L1583.06993,414.480957 C1583.06993,431.882324 1577.43712,451.999512 1566.17149,474.83252 C1562.65098,489.115723 1551.13389,496.257324 1531.62022,496.257324 L1531.62022,496.257324 L1526.7921,495.050293 C1501.84679,486.802246 1489.37413,473.021973 1489.37413,453.709473 C1495.61046,434.396973 1504.46202,424.740723 1515.92882,424.740723 L1515.92882,424.740723 L1517.13585,424.740723 C1521.66221,424.740723 1524.47862,426.752441 1525.58507,430.775879 L1525.58507,430.775879 L1521.96397,448.881348 L1523.171,450.088379 C1536.046,444.455566 1542.4835,438.42041 1542.4835,431.98291 L1542.4835,431.98291 L1542.4835,430.775879 C1542.4835,420.314941 1534.03429,413.072754 1517.13585,409.049316 L1517.13585,409.049316 L1514.72179,409.049316 C1496.81749,409.049316 1485.14952,423.936035 1479.71788,453.709473 L1479.71788,453.709473 L1482.13194,468.193848 C1495.81163,496.559082 1513.51475,510.741699 1535.24132,510.741699 L1535.24132,510.741699 Z M1589.85948,250.777344 L1586.23839,250.777344 L1582.61729,247.15625 L1588.65245,245.949219 L1593.48057,245.949219 L1593.48057,247.15625 C1591.06651,247.15625 1589.85948,248.363281 1589.85948,250.777344 L1589.85948,250.777344 Z M1580.20323,253.191406 L1578.9962,253.191406 L1578.9962,250.777344 L1580.20323,250.777344 L1580.20323,253.191406 Z M1598.3087,258.019531 L1594.68761,256.8125 L1594.68761,255.605469 L1595.89464,254.398438 L1598.3087,256.8125 L1598.3087,258.019531 Z M1582.61729,268.882813 L1581.41026,268.882813 L1581.41026,266.46875 L1582.61729,260.433594 L1583.82432,260.433594 L1583.82432,261.640625 L1582.61729,268.882813 Z M1588.65245,343.71875 L1587.44542,343.71875 L1587.44542,285.78125 L1591.06651,262.847656 C1593.88292,262.847656 1596.69932,272.101563 1599.51573,290.609375 C1599.51573,305.59668 1595.89464,323.299805 1588.65245,343.71875 L1588.65245,343.71875 Z M1600.72276,273.710938 L1599.51573,273.710938 L1598.3087,267.675781 L1598.3087,266.46875 L1599.51573,266.46875 L1600.72276,270.089844 L1600.72276,273.710938 Z M1581.41026,273.710938 L1580.20323,273.710938 L1580.20323,270.089844 L1581.41026,270.089844 L1581.41026,273.710938 Z M1575.37511,277.332031 L1574.16807,277.332031 L1574.16807,273.710938 L1575.37511,273.710938 L1575.37511,277.332031 Z M1580.20323,282.160156 L1578.9962,282.160156 L1578.9962,276.125 L1580.20323,276.125 L1580.20323,282.160156 Z M1516.23057,282.160156 L1515.02354,282.160156 L1515.02354,277.332031 L1516.23057,277.332031 L1516.23057,282.160156 Z M1572.96104,290.609375 L1571.75401,290.609375 L1571.75401,286.988281 L1572.96104,278.539063 L1574.16807,278.539063 L1574.16807,280.953125 L1572.96104,290.609375 Z M1578.9962,317.164063 L1577.78917,317.164063 L1575.37511,306.300781 L1577.78917,283.367188 L1578.9962,283.367188 L1578.9962,317.164063 Z M1508.98839,307.507813 L1507.78136,307.507813 L1507.78136,291.816406 L1508.98839,291.816406 L1508.98839,307.507813 Z M1510.19542,317.164063 L1508.98839,317.164063 L1508.98839,309.921875 L1510.19542,309.921875 L1510.19542,317.164063 Z M1511.40245,323.199219 L1510.19542,323.199219 L1510.19542,320.785156 L1511.40245,320.785156 L1511.40245,323.199219 Z M1558.47667,379.929688 L1553.64854,379.929688 L1553.64854,378.722656 C1557.97374,378.722656 1564.41124,375.101563 1572.96104,367.859375 L1572.96104,367.859375 L1572.96104,369.066406 C1571.65343,372.285156 1566.8253,375.90625 1558.47667,379.929688 L1558.47667,379.929688 Z M1530.41319,431.98291 L1529.20616,431.98291 L1529.20616,428.361816 L1530.41319,428.361816 L1530.41319,431.98291 Z M1518.34288,502.29248 L1515.92882,502.29248 L1515.92882,501.085449 L1518.34288,501.085449 L1518.34288,502.29248 Z M1526.7921,504.706543 L1524.37804,504.706543 L1519.54991,503.499512 L1519.54991,502.29248 L1520.75694,502.29248 L1526.7921,503.499512 L1526.7921,504.706543 Z M1538.86241,505.913574 L1527.99913,505.913574 L1527.99913,504.706543 L1538.86241,504.706543 L1538.86241,505.913574 Z" id="path-1"></path>
        <path d="M532.7,731.56 C540.26,731.56 546.606667,730.44 551.74,728.2 C556.873333,725.96 560.676667,722.926667 563.15,719.1 C565.623333,715.273333 566.86,711.073333 566.86,706.5 C566.86,700.806667 565.39,696.256667 562.45,692.85 C559.51,689.443333 555.893333,686.923333 551.6,685.29 C547.306667,683.656667 541.613333,681.953333 534.52,680.18 C527.986667,678.593333 522.783333,677.053333 518.91,675.56 C515.036667,674.066667 511.77,671.896667 509.11,669.05 C506.45,666.203333 505.12,662.4 505.12,657.64 C505.12,651.573333 507.57,646.556667 512.47,642.59 C517.37,638.623333 524.58,636.64 534.1,636.64 C538.673333,636.64 543.316667,637.363333 548.03,638.81 C552.743333,640.256667 557.013333,642.38 560.84,645.18 L560.84,645.18 L562.94,641.4 C559.3,638.6 554.89,636.406667 549.71,634.82 C544.53,633.233333 539.28,632.44 533.96,632.44 C526.493333,632.44 520.263333,633.583333 515.27,635.87 C510.276667,638.156667 506.566667,641.213333 504.14,645.04 C501.713333,648.866667 500.5,653.066667 500.5,657.64 C500.5,663.426667 501.993333,668.046667 504.98,671.5 C507.966667,674.953333 511.606667,677.52 515.9,679.2 C520.193333,680.88 525.886667,682.606667 532.98,684.38 C539.606667,685.966667 544.833333,687.483333 548.66,688.93 C552.486667,690.376667 555.706667,692.523333 558.32,695.37 C560.933333,698.216667 562.24,701.973333 562.24,706.64 C562.24,712.706667 559.743333,717.676667 554.75,721.55 C549.756667,725.423333 542.36,727.36 532.56,727.36 C525.933333,727.36 519.703333,726.17 513.87,723.79 C508.036667,721.41 503.486667,718.353333 500.22,714.62 L500.22,714.62 L497.7,717.98 C501.153333,721.993333 506.076667,725.26 512.47,727.78 C518.863333,730.3 525.606667,731.56 532.7,731.56 Z M664.32,731 L664.32,637.34 L700.3,637.34 L700.3,633 L623.72,633 L623.72,637.34 L659.7,637.34 L659.7,731 L664.32,731 Z M807.98,731.56 C817.5,731.56 826.133333,729.413333 833.88,725.12 C841.626667,720.826667 847.693333,714.9 852.08,707.34 C856.466667,699.78 858.66,691.333333 858.66,682 C858.66,672.666667 856.466667,664.22 852.08,656.66 C847.693333,649.1 841.626667,643.173333 833.88,638.88 C826.133333,634.586667 817.5,632.44 807.98,632.44 C798.46,632.44 789.85,634.586667 782.15,638.88 C774.45,643.173333 768.406667,649.1 764.02,656.66 C759.633333,664.22 757.44,672.666667 757.44,682 C757.44,691.333333 759.633333,699.78 764.02,707.34 C768.406667,714.9 774.45,720.826667 782.15,725.12 C789.85,729.413333 798.46,731.56 807.98,731.56 Z M807.98,727.22 C799.393333,727.22 791.623333,725.26 784.67,721.34 C777.716667,717.42 772.233333,712.006667 768.22,705.1 C764.206667,698.193333 762.2,690.493333 762.2,682 C762.2,673.506667 764.206667,665.806667 768.22,658.9 C772.233333,651.993333 777.716667,646.58 784.67,642.66 C791.623333,638.74 799.393333,636.78 807.98,636.78 C816.566667,636.78 824.36,638.74 831.36,642.66 C838.36,646.58 843.866667,651.993333 847.88,658.9 C851.893333,665.806667 853.9,673.506667 853.9,682 C853.9,690.493333 851.893333,698.193333 847.88,705.1 C843.866667,712.006667 838.36,717.42 831.36,721.34 C824.36,725.26 816.566667,727.22 807.98,727.22 Z M939.32,731 L939.32,698.1 L968.58,698.1 C972.5,698.1 976.046667,697.82 979.22,697.26 L979.22,697.26 L1003.44,731 L1009.04,731 L983.98,696.14 C991.54,694.086667 997.35,690.423333 1001.41,685.15 C1005.47,679.876667 1007.5,673.32 1007.5,665.48 C1007.5,655.306667 1004.07,647.35 997.21,641.61 C990.35,635.87 980.806667,633 968.58,633 L968.58,633 L934.56,633 L934.56,731 L939.32,731 Z M968.86,693.76 L939.32,693.76 L939.32,637.34 L968.86,637.34 C979.78,637.34 988.18,639.79 994.06,644.69 C999.94,649.59 1002.88,656.52 1002.88,665.48 C1002.88,674.533333 999.94,681.51 994.06,686.41 C988.18,691.31 979.78,693.76 968.86,693.76 L968.86,693.76 Z M1151.3,731 L1151.3,726.66 L1089.84,726.66 L1089.84,683.4 L1143.04,683.4 L1143.04,679.06 L1089.84,679.06 L1089.84,637.34 L1149.34,637.34 L1149.34,633 L1085.08,633 L1085.08,731 L1151.3,731 Z" id="path-2"></path>
    </defs>
    <g id="Page-1" stroke="none" stroke-width="1" fill="none" fill-rule="evenodd">
        <g id="Desktop" transform="translate(0.000000, -1.000000)" fill-rule="nonzero">
            <g id="missfantasystore-5" transform="translate(0.000000, 1.000000)">
                <g id="MissFantasy">
                    <use fill="#000000" xlink:href="#path-1"></use>
                    <use fill="#636E72" xlink:href="#path-1"></use>
                </g>
                <path d="M669.089,260.23 L654.728,333.255 C653.874576,337.620113 655.089399,342.134456 658.018254,345.481747 C660.947109,348.829038 665.260227,350.632395 669.7,350.366 L737.735,346.19 C743.106507,345.853413 747.844302,342.555461 750.025,337.635 L762.213,309.9 C763.71125,306.53988 762.51008,302.589405 759.395,300.632 C733.559,284.2 707.045,268.855 679.749,255.038 C677.67283,253.979924 675.2204,253.957749 673.125437,254.97811 C671.030474,255.998471 669.535949,257.943028 669.089,260.23 Z" id="Caminho_103" fill="#F7C3C4"></path>
                <path d="M57.279,64.945 L56.436,65.306 L5.528,84.176 C3.01651754,85.1472979 1.37894555,87.5836855 1.428,90.276 L1.428,90.316 C1.428,111.116 1.228,131.949 1.107,152.745 C1.027,168.162 0.946,183.618 1.027,199.075 C1.05336648,202.02588 3.13385378,204.558978 6.02335067,205.158308 C8.91284756,205.757637 11.8291768,204.260963 13.027,201.564 L68.427,75.541 C69.821882,72.3858631 69.0841527,68.6945684 66.5837108,66.3179373 C64.0832689,63.9413063 60.3592966,63.3918233 57.279,64.945 Z" id="Caminho_104" fill="#F7F09B"></path>
                <path d="M1422.366,437.17 L1378.766,424.524 C1371.26253,421.02267 1362.33398,424.093765 1358.572,431.47 L1317.822,485.508 C1311.077,498.716 1325.008,512.888 1338.297,506.345 L1422.647,464.953 C1427.97023,462.339979 1431.32024,456.902639 1431.26106,450.972964 C1431.20029,445.043288 1427.74099,439.674818 1422.366,437.17 L1422.366,437.17 Z" id="Caminho_105" fill="#F7C3C4"></path>
                <path d="M1626.19826,253.916631 C1626.47237,255.276309 1627.4195,256.403069 1628.7118,256.906878 C1630.0041,257.410686 1631.46395,257.222299 1632.58601,256.406926 C1649.51794,244.19267 1665.61347,230.858968 1680.76472,216.495197 C1685.06123,212.399378 1689.26373,208.183546 1693.37222,203.847699 C1694.38773,202.759546 1694.71248,201.196291 1694.21438,199.793705 C1693.71628,198.391118 1692.47831,197.382831 1691.00394,197.178908 L1628.72856,187.90681 C1625.2783,187.350234 1621.77188,188.496465 1619.31657,190.983537 C1616.86127,193.470609 1615.76021,196.991478 1616.36109,200.434294 L1626.19826,253.916631 Z" id="Caminho_106" fill="#F7F09B" transform="translate(1655.322168, 222.476935) rotate(74.991086) translate(-1655.322168, -222.476935) "></path>
                <path d="M119.189,432.668 C115.778441,433.31299 112.764849,435.288922 110.813578,438.159543 C108.862306,441.030164 108.133835,444.559381 108.789,447.968 L118.344,498.514 C118.773066,502.084681 120.7968,505.268696 123.847605,507.17302 C126.89841,509.077344 130.647734,509.496895 134.044,508.314 L162.308,498.558 C168.527306,496.417891 171.834452,489.641532 169.695,483.422 L155.322,441.588 C153.001976,434.843977 146.506566,430.442796 139.383,430.788 C132.622201,431.042606 125.880612,431.670228 119.189,432.668 Z" id="Caminho_107" fill="#A8DBDC"></path>
                <path d="M1345.941,224.425 C1347.57554,227.313137 1350.87351,228.832861 1354.131,228.199 L1354.171,228.199 C1369.347,225.349 1384.723,224.586 1400.1,224.385 C1403.43364,224.338189 1406.34755,222.124167 1407.286,218.925 L1414.071,196.325 C1415.20275,192.549113 1414.39446,188.457882 1411.9118,185.396085 C1409.42914,182.334288 1405.59326,180.697976 1401.665,181.025 C1385.606,182.39 1361.478,184.397 1344.656,185.803 C1340.41875,186.150354 1336.64775,188.62541 1334.64333,192.374706 C1332.6389,196.124002 1332.67531,200.634551 1334.74,204.351 C1338.112,210.374 1342.006,217.399 1345.941,224.425 Z" id="Caminho_108" fill="#A8DBDC"></path>
                <path d="M542.872,206.618 C544.518,202.965 546.285,199.391 548.172,195.859 C550.353272,191.682863 550.169675,186.665785 547.689002,182.660248 C545.208328,178.654711 540.798583,176.254935 536.088,176.347 C530.188,176.467 524.325,176.628 518.423,176.909 C496.342,177.909 473.659,180.362 453.545,188.793 C450.233366,190.202033 447.63626,192.895997 446.349375,196.256982 C445.06249,199.617968 445.196259,203.357554 446.72,206.618 C446.76,206.698 446.76,206.738 446.8,206.818 C448.937024,211.480928 453.555649,214.508063 458.684,214.607 C482.732,215.007 506.821,214.647 530.869,214.446 C536.037232,214.345026 540.69583,211.306827 542.872,206.618 L542.872,206.618 Z" id="Caminho_109" fill="#F7C3C4"></path>
                <path d="M918.052364,507.54476 C926.743364,512.53576 935.366364,517.69576 943.922364,522.92376 C945.927888,524.160677 948.450198,524.198163 950.491594,523.021391 C952.532989,521.844618 953.764639,519.643143 953.699364,517.28776 C952.852364,485.68476 953.161364,454.00676 953.364364,422.36576 C953.379994,419.707432 951.757887,417.313647 949.283087,416.342916 C946.808287,415.372184 943.991266,416.024737 942.195364,417.98476 C937.170364,423.48476 931.942364,428.81476 926.646364,433.97476 C911.269354,448.80949 894.938855,462.622953 877.759364,475.32676 C875.96641,476.643982 874.987348,478.798723 875.174472,481.015644 C875.361597,483.232566 876.687984,485.19271 878.676364,486.19076 C891.984364,492.98076 905.109697,500.09876 918.052364,507.54476 Z" id="Caminho_110" fill="#F7F09B" transform="translate(914.426802, 469.888562) rotate(-90.000000) translate(-914.426802, -469.888562) "></path>
                <g id="STORE">
                    <use fill="#000000" xlink:href="#path-2"></use>
                    <use fill="#636E72" xlink:href="#path-2"></use>
                </g>
            </g>
        </g>
    </g>
</svg>